<svg xmlns="http://www.w3.org/2000/svg" width="912" height="917" viewBox="0 0 912 917" version="1.1"><path d="M 417 1.499 C 330.874 9.517, 251.265 39.949, 183.496 90.761 C 85.064 164.564, 20.740 273.887, 4.039 395.762 C -1.335 434.976, -1.507 479.313, 3.560 519.500 C 8.457 558.348, 20.537 602.421, 36.724 640.500 C 93.032 772.965, 211.199 872.235, 352 905.359 C 373.686 910.461, 397.638 914.157, 421.348 916.061 C 442.995 917.799, 494.016 916.737, 513.500 914.142 C 565.204 907.256, 609.362 894.332, 653.088 873.286 C 763.309 820.236, 847.919 724.577, 887.795 607.926 C 899.649 573.247, 906.562 540.550, 911.139 497.500 C 912.623 483.547, 913.381 432.181, 912.143 429.500 C 911.635 428.400, 910.708 421.280, 910.084 413.677 C 909.460 406.074, 907.573 391.674, 905.892 381.677 C 885.018 257.574, 814.220 147.770, 709.500 77.087 C 646.191 34.355, 572.625 8.178, 497 1.473 C 477.131 -0.289, 436.060 -0.275, 417 1.499 M 435.500 12.575 C 392.025 15.774, 366.105 20.132, 332.280 29.929 C 230.055 59.539, 140.221 126.784, 82.365 217 C 42.920 278.509, 20.140 344.555, 12.866 418.500 C 11.220 435.236, 11.217 482.730, 12.862 499.500 C 23.244 605.355, 67.318 699.242, 141.500 773.519 C 209.138 841.245, 294.831 885.037, 388 899.490 C 414.314 903.572, 427.067 904.481, 458 904.481 C 489.067 904.481, 501.865 903.562, 528.172 899.442 C 650.754 880.241, 759.906 809.840, 829.640 705 C 870.226 643.984, 894.563 575.350, 902.155 500.500 C 903.887 483.426, 903.898 432.390, 902.174 416 C 891.026 310.050, 847.583 217.845, 774 143.961 C 700.610 70.270, 605.349 24.824, 502.500 14.435 C 488.797 13.051, 445.404 11.847, 435.500 12.575 M 417 25.506 C 332.303 33.886, 253.524 65.784, 187.500 118.431 C 182 122.817, 177.275 126.652, 177 126.953 C 176.725 127.254, 172.236 131.325, 167.025 136 C 155.110 146.689, 145.594 156.207, 136 167.029 C 131.875 171.683, 127.958 176.066, 127.297 176.770 C 126.635 177.474, 124.385 180.176, 122.297 182.775 C 120.208 185.374, 118.261 187.725, 117.969 188 C 117.677 188.275, 115.290 191.425, 112.663 195 C 110.037 198.575, 107.314 202.204, 106.612 203.065 C 104.686 205.427, 89 229.159, 89 229.711 C 89 229.975, 88.137 231.404, 87.081 232.886 C 86.026 234.367, 83.702 238.262, 81.917 241.540 C 80.132 244.818, 78.388 247.725, 78.043 248 C 76.338 249.358, 55 295.246, 55 297.556 C 55 298.101, 51.257 306.706, 49.918 309.236 C 49.413 310.191, 49 311.852, 49 312.927 C 49 314.002, 48.550 315.160, 48 315.500 C 47.450 315.840, 47 317.141, 47 318.392 C 47 319.643, 46.687 320.980, 46.304 321.362 C 45.922 321.745, 45.498 322.813, 45.362 323.736 C 45.227 324.659, 44.691 326.334, 44.172 327.457 C 43.653 328.581, 42.674 331.525, 41.998 334 C 41.322 336.475, 40.399 339.625, 39.947 341 C 39.495 342.375, 38.196 347.550, 37.060 352.500 C 35.924 357.450, 34.564 363.075, 34.037 365 C 33.511 366.925, 32.340 372.775, 31.436 378 C 29.326 390.194, 29.076 391.868, 27.476 404.500 C 27.267 406.150, 26.548 411.775, 25.877 417 C 24.022 431.460, 24.322 484.107, 26.361 502 C 32.869 559.108, 47.153 607.180, 72.119 656 C 77.041 665.625, 81.840 674.508, 82.784 675.739 L 84.500 677.979 91 674.162 C 108.436 663.923, 134.377 648.641, 151.500 638.520 C 161.950 632.344, 175 624.674, 180.500 621.476 C 186 618.278, 194.775 613.108, 200 609.987 C 220.714 597.615, 229.135 592.802, 229.471 593.143 C 229.665 593.339, 233.129 598.450, 237.170 604.500 C 254.605 630.608, 274.833 652, 299.500 670.419 C 315.252 682.181, 323.396 687.150, 341.500 696.044 C 406.206 727.832, 481.732 731.576, 549.893 706.374 C 573.901 697.497, 604.062 680.210, 624.978 663.338 C 646.842 645.702, 668.229 620.947, 685.563 593.212 C 685.662 593.053, 691.539 596.381, 698.622 600.607 C 705.705 604.833, 713.525 609.408, 716 610.775 C 718.475 612.141, 721.175 613.778, 722 614.411 C 722.825 615.045, 725.525 616.641, 728 617.957 C 730.475 619.274, 732.725 620.609, 733 620.925 C 733.275 621.241, 734.574 622.105, 735.887 622.844 C 737.200 623.583, 739.900 625.109, 741.887 626.235 C 743.874 627.361, 747.525 629.402, 750 630.771 C 752.475 632.140, 755.175 633.778, 756 634.411 C 756.825 635.045, 759.525 636.641, 762 637.957 C 764.475 639.274, 766.725 640.609, 767 640.925 C 767.275 641.241, 769.525 642.591, 772 643.925 C 774.475 645.259, 776.725 646.610, 777 646.927 C 777.275 647.244, 778.850 648.177, 780.500 649 C 782.150 649.823, 783.725 650.732, 784 651.019 C 784.275 651.306, 785.625 652.091, 787 652.763 C 788.375 653.435, 790.175 654.421, 791 654.953 C 797.569 659.189, 809.332 666, 810.079 666 C 810.586 666, 811 666.450, 811 667 C 811 667.550, 811.426 668, 811.946 668 C 812.788 668, 819.497 671.677, 828.642 677.150 L 831.785 679.030 834.088 675.265 C 837.611 669.508, 838.698 667.474, 845.449 654 C 855.169 634.601, 858.565 627.192, 861.951 618 C 863.673 613.325, 865.574 608.375, 866.175 607 C 868.121 602.548, 869.440 598.524, 876.005 577 C 878.256 569.621, 881.996 554.179, 882.665 549.500 C 882.902 547.850, 883.306 545.880, 883.565 545.122 C 884.266 543.068, 886.732 530.149, 887.405 525 C 887.729 522.525, 888.194 519.150, 888.438 517.500 C 891.706 495.402, 893.015 464.267, 891.834 436.699 C 887.145 327.210, 840.082 223.250, 760 145.482 C 756.425 142.011, 751.492 137.444, 749.038 135.335 C 746.584 133.226, 743.233 130.242, 741.592 128.704 C 739.951 127.167, 737.234 124.825, 735.554 123.500 C 721.658 112.539, 714.646 107.211, 709.500 103.702 C 706.200 101.451, 702.935 99.052, 702.244 98.370 C 701.553 97.689, 700.091 96.846, 698.994 96.498 C 697.897 96.150, 697 95.446, 697 94.933 C 697 94.420, 696.325 94, 695.500 94 C 694.675 94, 694 93.550, 694 93 C 694 92.450, 693.325 92, 692.500 92 C 691.675 92, 691 91.550, 691 91 C 691 90.450, 690.541 90, 689.980 90 C 689.419 90, 687.057 88.789, 684.730 87.308 C 682.404 85.827, 678.475 83.531, 676 82.206 C 673.525 80.880, 671.275 79.495, 671 79.129 C 670.185 78.042, 637.612 61.976, 636.250 61.988 C 635.563 61.995, 635 61.475, 635 60.833 C 635 60.192, 634.720 59.946, 634.378 60.288 C 634.036 60.630, 631.674 59.864, 629.128 58.585 C 626.583 57.306, 623.375 55.926, 622 55.518 C 620.625 55.111, 617.925 54.107, 616 53.287 C 614.075 52.467, 611.375 51.339, 610 50.781 C 608.625 50.223, 606.719 49.369, 605.764 48.883 C 604.809 48.397, 603.340 48, 602.500 48 C 601.660 48, 600.191 47.594, 599.236 47.097 C 598.281 46.601, 595.475 45.620, 593 44.917 C 590.525 44.215, 587.938 43.216, 587.250 42.697 C 586.563 42.179, 586 41.988, 586 42.273 C 586 42.557, 583.188 41.885, 579.750 40.778 C 573.766 38.852, 569.005 37.638, 562.500 36.381 C 560.850 36.063, 558.712 35.381, 557.750 34.866 C 556.788 34.351, 556 34.123, 556 34.360 C 556 34.596, 554.313 34.372, 552.250 33.863 C 540.191 30.883, 522.427 27.936, 507.500 26.440 C 504.200 26.109, 498.350 25.476, 494.500 25.033 C 483.745 23.796, 431.033 24.117, 417 25.506 M 443.654 68.250 C 443.301 72.787, 443.009 89.205, 443.006 104.734 L 443 132.968 445.918 136.234 L 448.836 139.500 460 139.500 L 471.164 139.500 473.988 136.339 C 477.548 132.356, 477.882 128.700, 478.249 89.750 L 478.520 61 472.415 61 L 466.311 61 465.659 75.250 C 465.301 83.088, 465.006 98.162, 465.004 108.750 C 465 130.076, 465.439 128.838, 458.375 127.425 L 455.500 126.850 455.859 93.425 L 456.217 60 450.257 60 L 444.296 60 443.654 68.250 M 380.500 67.442 C 370.601 69.427, 367 72.474, 367 78.864 C 367 83.037, 376.668 135.447, 378.121 139.151 C 380.797 145.974, 385.062 147.312, 396.958 145.059 C 405.269 143.486, 408.574 141.724, 410.613 137.781 C 412.150 134.809, 412.140 133.938, 410.463 124.798 C 409.474 119.409, 408.444 115, 408.173 115 C 407.903 115, 405.291 116.805, 402.368 119.012 C 397.722 122.520, 397.123 123.367, 397.600 125.762 C 398.837 131.981, 398.699 132.320, 394.571 133.203 C 392.411 133.665, 390.336 133.696, 389.961 133.271 C 389.142 132.345, 379.630 81.037, 380.176 80.490 C 380.386 80.281, 382.410 79.693, 384.674 79.185 L 388.791 78.260 389.959 84.199 C 390.803 88.486, 391.458 89.893, 392.314 89.255 C 402.323 81.795, 402.239 81.899, 401.564 77.677 C 399.842 66.905, 394.973 64.539, 380.500 67.442 M 523.502 69.250 C 520.812 80.552, 507.067 143.386, 507.255 143.524 C 507.816 143.938, 516.997 146, 518.279 146 C 519.258 146, 520.526 141.999, 522.550 132.525 C 524.257 124.533, 525.967 118.843, 526.752 118.542 C 528.421 117.901, 528.357 117.698, 531.865 134.816 C 533.479 142.690, 534.995 149.328, 535.233 149.566 C 536.052 150.385, 547.048 152.286, 547.625 151.708 C 547.943 151.390, 546.551 143.234, 544.531 133.583 C 542.512 123.932, 541.111 115.629, 541.419 115.131 C 541.726 114.634, 543.542 113.933, 545.454 113.575 C 547.366 113.216, 549.159 112.552, 549.439 112.099 C 549.719 111.646, 551.371 104.840, 553.110 96.974 C 557.875 75.429, 556.817 73.451, 538.377 69.425 C 524.862 66.474, 524.165 66.466, 523.502 69.250 M 533.644 82.750 C 532.170 88.010, 528.861 104.194, 529.192 104.525 C 529.405 104.739, 531.587 104.328, 534.040 103.614 L 538.500 102.314 540.659 93.907 C 541.847 89.283, 542.859 84.959, 542.909 84.297 C 542.959 83.635, 541.313 82.625, 539.250 82.053 C 534.339 80.689, 534.218 80.704, 533.644 82.750 M 312 86.659 C 301.839 90.820, 297.841 94.311, 297.736 99.114 C 297.689 101.236, 302.376 114.398, 310.294 134.379 C 317.241 151.913, 323.136 166.469, 323.393 166.727 C 323.803 167.136, 349.930 157.381, 350.852 156.475 C 351.348 155.988, 347.995 146.115, 347.157 145.597 C 346.777 145.362, 343.392 146.482, 339.635 148.085 C 335.877 149.688, 332.284 150.998, 331.651 150.996 C 330.654 150.993, 324 135.881, 324 133.620 C 324 133.166, 326.700 129.665, 330 125.840 C 333.300 122.015, 336 118.502, 336 118.032 C 336 116.324, 331.702 106, 330.991 106 C 330.589 106, 327.643 109.142, 324.445 112.981 C 321.246 116.821, 318.529 119.859, 318.407 119.731 C 317.705 119.002, 310.819 100.849, 311.127 100.542 C 311.332 100.339, 314.875 98.817, 319 97.160 C 323.674 95.283, 326.387 93.649, 326.201 92.824 C 325.286 88.765, 322.575 83.012, 321.614 83.089 C 321.001 83.138, 316.675 84.744, 312 86.659 M 597.148 95.342 C 595.518 99.279, 588.930 115.318, 582.506 130.985 C 576.083 146.652, 570.608 159.825, 570.341 160.258 C 569.673 161.338, 581.126 166.304, 581.976 165.303 C 582.667 164.489, 610.660 96.277, 611.204 94.082 C 611.367 93.425, 608.937 91.830, 605.805 90.536 L 600.110 88.183 597.148 95.342 M 645.750 115.530 C 644.237 118.033, 643 120.405, 643 120.800 C 643 121.195, 645.250 122.873, 648 124.529 L 652.999 127.539 645.875 139.020 C 627.284 168.979, 618 184.111, 618 184.454 C 618 185.511, 628.374 191.023, 628.893 190.242 C 629.227 189.739, 637.135 177.104, 646.467 162.164 C 655.799 147.224, 663.787 135, 664.220 135 C 664.652 135, 667.138 136.327, 669.743 137.948 L 674.480 140.897 677.675 135.717 C 679.432 132.868, 680.787 130.468, 680.685 130.385 C 679.699 129.578, 650.595 111.782, 649.695 111.436 C 649.037 111.184, 647.262 113.026, 645.750 115.530 M 248.427 118.901 C 247.287 119.230, 243.086 121.488, 239.091 123.917 C 225.220 132.351, 225.352 134.818, 240.958 159.039 C 247.146 168.642, 252.556 176.872, 252.981 177.326 C 253.405 177.781, 256.386 173.618, 259.604 168.076 C 262.822 162.534, 265.745 158, 266.098 158 C 266.634 158, 277.840 174.865, 278.808 177.129 C 278.978 177.525, 277.433 178.993, 275.376 180.391 L 271.636 182.932 268.291 177.966 C 266.452 175.235, 264.767 173, 264.547 173 C 264.327 173, 262.695 175.537, 260.921 178.639 C 257.698 184.271, 257.696 184.281, 259.476 187.585 C 262.068 192.398, 265.229 195.001, 269.280 195.658 C 272.325 196.152, 273.960 195.544, 280.441 191.504 C 284.618 188.901, 288.927 185.637, 290.017 184.251 C 292.352 181.283, 292.586 176.035, 290.559 172.114 C 288.998 169.095, 267.235 135.024, 266.011 133.682 C 265.600 133.232, 262.644 137.395, 259.441 142.932 C 256.238 148.469, 253.310 153, 252.935 153 C 252.103 153, 241.555 137.073, 242.108 136.652 C 242.324 136.487, 244.025 135.298, 245.889 134.009 L 249.279 131.665 251.982 134.979 L 254.686 138.292 257.843 132.774 C 259.579 129.739, 260.990 126.861, 260.978 126.378 C 260.888 122.836, 252.370 117.761, 248.427 118.901 M 696.568 176.095 C 684.625 188.852, 679.093 195.440, 679.904 195.941 C 680.572 196.353, 685.591 197.940, 691.059 199.467 C 696.527 200.994, 701 202.543, 701 202.910 C 701 203.276, 697.437 207.384, 693.082 212.038 L 685.164 220.500 681.928 217.327 L 678.693 214.154 681.458 210.867 L 684.224 207.580 679.362 205.868 C 672.517 203.456, 670.459 203.601, 668.051 206.662 C 663.034 213.040, 664.105 217.397, 672.651 225.383 C 686.660 238.474, 685.154 239.127, 715.558 206.777 L 740.118 180.644 735.680 176.206 L 731.242 171.768 723.731 179.634 C 719.599 183.960, 715.349 188.576, 714.286 189.892 C 712.428 192.190, 712.149 192.235, 707.176 191.042 C 704.329 190.359, 702.021 189.508, 702.048 189.150 C 702.074 188.793, 707.004 183.325, 713.003 177 L 723.911 165.500 719.747 161.250 C 717.457 158.912, 715.327 157, 715.014 157 C 714.701 157, 706.400 165.593, 696.568 176.095 M 146.294 207.507 C 144.453 208.796, 131.803 224.160, 129.670 227.695 C 129.200 228.475, 139.769 237.308, 160.090 253.118 L 191.231 277.346 193.143 274.923 C 194.195 273.590, 195.950 271.297, 197.042 269.826 L 199.028 267.152 188.433 258.948 C 178.822 251.506, 176.011 248.656, 177.153 247.513 C 177.373 247.293, 184.517 248.877, 193.027 251.032 C 201.537 253.188, 208.558 254.963, 208.630 254.976 C 208.701 254.989, 210.597 252.567, 212.842 249.593 C 215.471 246.111, 216.493 244.020, 215.712 243.721 C 215.046 243.465, 206.728 241.353, 197.229 239.026 L 179.958 234.796 180.577 230.134 L 181.195 225.472 174.848 220.525 C 157.203 206.772, 155.998 206, 152.170 206 C 150.121 206, 147.477 206.678, 146.294 207.507 M 425.534 208.596 C 360.053 217.534, 302.753 249.565, 262.022 300 C 248.148 317.179, 228.576 349, 231.883 349 C 233.340 349, 274.385 328.381, 287 321.312 C 329.386 297.561, 359.233 271.976, 365.024 254.428 L 366.155 251 457.828 251.027 L 549.500 251.054 552.300 257.326 C 562.110 279.305, 599.011 307.044, 657 336.030 C 678.539 346.797, 684 349.253, 684 348.176 C 684 347.779, 681.325 342.643, 678.054 336.763 C 638.553 265.730, 568.437 218.642, 487 208.455 C 472.652 206.660, 439.156 206.737, 425.534 208.596 M 148.716 222.660 L 146.112 226.319 155.806 233.764 L 165.500 241.209 166.132 238.354 C 167.706 231.239, 167.394 230.579, 159.638 224.639 C 155.589 221.537, 152.061 219, 151.798 219 C 151.535 219, 150.148 220.647, 148.716 222.660 M 369.588 260.750 C 364.848 270.721, 352.034 284.829, 336.500 297.180 C 316.075 313.419, 276.443 336.344, 241.266 352.266 L 231.032 356.898 234.391 364.699 C 244.654 388.532, 258.477 419.979, 260.077 423.132 C 261.854 426.634, 262.078 426.746, 266.341 426.265 C 272.433 425.578, 277.233 427.409, 281.380 431.999 C 296.105 448.298, 276.117 471.542, 257.770 459.455 C 249.007 453.682, 247.426 440.355, 254.514 432 C 255.574 430.750, 254.134 426.743, 245.890 408 C 240.447 395.625, 233.648 379.993, 230.780 373.261 C 227.608 365.816, 225.285 361.527, 224.846 362.310 C 221.599 368.113, 213.307 395.508, 210.563 409.500 C 204.204 441.922, 204.380 478.326, 211.052 510.751 C 228.144 593.823, 289.145 664.571, 369.500 694.516 C 398.324 705.258, 426.239 710.210, 458 710.216 C 476.622 710.219, 489.041 709.089, 506 705.848 C 604.993 686.930, 684.381 607.952, 704.373 508.500 C 712.155 469.789, 710.566 425.955, 700.059 389.500 C 696.462 377.020, 690.754 361.844, 689.973 362.683 C 689.554 363.132, 682.575 378.796, 674.464 397.491 C 627.862 504.897, 585.189 592.809, 564.503 624.025 C 545.316 652.979, 516.889 671.608, 483.074 677.389 C 471.021 679.449, 445.719 679.514, 433.403 677.516 C 400.445 672.171, 370.542 652.934, 351.957 625.121 L 346.531 617 340.603 617 C 336.058 617, 333.664 616.407, 330.336 614.457 C 319.532 608.125, 318.866 591.602, 329.110 584.065 C 332.587 581.507, 340.636 580.190, 345.435 581.394 C 348.981 582.284, 355.042 587.855, 356.649 591.702 C 359.256 597.941, 358.028 606.192, 353.826 610.678 C 351.954 612.677, 351.913 613.037, 353.322 615.049 C 354.831 617.203, 354.878 617.164, 356.017 612.871 C 356.654 610.467, 358.928 604, 361.070 598.500 C 367.358 582.354, 377.865 571.403, 395 563.133 C 399.125 561.142, 402.641 559.444, 402.814 559.359 C 402.987 559.274, 400.560 554.771, 397.421 549.352 C 394.282 543.934, 390.012 535.817, 387.932 531.315 C 385.079 525.138, 383.396 522.739, 381.076 521.539 L 378 519.949 378 527.867 C 378 534.440, 377.707 535.898, 376.276 536.447 C 373.241 537.612, 372 534.268, 372 524.924 C 372 516.778, 371.844 516.128, 369.525 514.609 L 367.051 512.987 366.775 528.636 C 366.534 542.372, 366.283 544.420, 364.722 545.392 C 361.624 547.322, 361.031 544.296, 361.015 526.469 L 361 509.438 351.750 503.982 C 339.951 497.022, 334.727 492.204, 331.324 485.143 C 328.688 479.673, 328.592 478.864, 328.189 458.750 L 327.773 438 308.454 438 C 286.279 438, 287.213 438.451, 288.473 428.366 C 289.025 423.951, 289.691 422.549, 292.075 420.786 L 295 418.624 295 399.960 C 295 382.221, 295.112 381.127, 297.270 377.898 C 301.618 371.389, 303.535 371.003, 331.516 371.002 C 367.541 370.999, 367 370.555, 367 400.167 C 367 418.021, 367.091 418.894, 369.011 419.503 C 372.245 420.530, 374.134 425.381, 373.799 431.794 L 373.500 437.500 353.678 437.771 L 333.856 438.043 334.178 458.771 L 334.500 479.500 337.500 484.500 L 340.500 489.500 341 468 C 341.487 447.040, 341.553 446.492, 343.620 446.198 C 346.711 445.756, 346.971 447.767, 346.986 472.237 L 347 493.975 350.980 496.487 C 353.169 497.869, 355.194 499, 355.480 499 C 355.766 499, 356 494.305, 356 488.567 C 356 478.887, 356.150 478.087, 358.075 477.476 C 359.217 477.114, 360.454 477.119, 360.825 477.488 C 361.196 477.856, 361.725 483.829, 362 490.761 L 362.500 503.364 372 509.113 L 381.500 514.862 382.101 507.181 C 382.480 502.337, 384.013 495.676, 386.252 489.148 C 389.192 480.575, 389.635 478.255, 388.832 475.648 C 388.298 473.917, 387.852 469.125, 387.841 465 C 387.799 450.131, 394.687 436.516, 410.607 420.003 C 423.945 406.166, 435.617 397.954, 447.625 393.959 L 454 391.837 454 374.918 L 454 358 439.750 357.985 C 431.913 357.976, 424.893 357.585, 424.152 357.115 C 423.410 356.645, 422.966 355.414, 423.164 354.380 C 423.496 352.653, 424.763 352.478, 438.763 352.224 L 454 351.948 454 344.974 L 454 338 435.035 338 C 417.309 338, 416.003 337.874, 415.035 336.066 C 412.543 331.410, 414.868 321.211, 418.915 319.045 C 420.911 317.977, 421 317.152, 421.002 299.715 C 421.003 279.104, 421.761 276.160, 428 272.534 C 431.205 270.671, 433.520 270.473, 455.500 270.175 C 481.885 269.817, 484.954 270.256, 489.542 275.041 L 492.500 278.126 492.809 297.522 L 493.118 316.918 496.559 320.359 C 499.773 323.573, 500 324.228, 500 330.283 C 500 336.162, 499.790 336.823, 497.750 337.370 C 496.512 337.701, 487.512 337.979, 477.750 337.986 L 460 338 460 353 L 460 368 478.433 368 C 496.348 368, 496.884 368.060, 497.540 370.125 C 497.963 371.458, 497.708 372.570, 496.857 373.110 C 496.111 373.582, 487.512 373.976, 477.750 373.985 L 460 374 460 377 L 460 380 471.393 380 C 481.255 380, 482.875 380.232, 483.447 381.724 C 484.667 384.903, 481.296 386, 470.309 386 L 460 386 460 388.986 C 460 391.698, 460.420 392.077, 464.587 393.126 C 478.653 396.668, 506.870 423.683, 516.398 442.731 C 519.975 449.883, 521.968 458.996, 521.985 468.290 C 521.997 474.236, 522.503 477.065, 524.123 480.242 C 529.787 491.343, 531.023 499.100, 528.931 510.414 C 528.343 513.594, 528.066 516.399, 528.314 516.647 C 528.562 516.895, 534.218 513.880, 540.883 509.947 L 553 502.795 553 490.366 C 553 479.755, 553.241 477.845, 554.645 477.306 C 557.730 476.122, 559 479.762, 559 489.793 L 559 499.203 563.250 496.694 L 567.500 494.186 568 470.343 C 568.499 446.550, 568.505 446.499, 570.750 446.180 C 571.987 446.005, 573.089 446.005, 573.199 446.180 C 573.308 446.356, 573.645 455.950, 573.949 467.500 L 574.500 488.500 577 484.500 C 579.432 480.608, 579.508 479.926, 579.805 459.250 L 580.110 438 560.600 438 L 541.091 438 540.434 434.500 C 539.437 429.184, 540.811 423.979, 543.997 421.003 L 546.840 418.347 547.170 399.244 C 547.471 381.792, 547.679 379.897, 549.571 377.320 C 553.933 371.380, 555.976 371.003, 583.800 371.002 C 611.808 371, 613.382 371.298, 617.040 377.299 C 618.797 380.179, 618.993 382.421, 618.996 399.683 C 619 418.069, 619.084 418.892, 621.027 419.508 C 624.653 420.659, 626.127 424.254, 625.800 431.151 L 625.500 437.500 606 438 L 586.500 438.500 586 460 L 585.500 481.500 582.551 486.824 C 579.139 492.983, 574.996 496.536, 563.073 503.527 L 554.500 508.554 554 526.420 C 553.560 542.134, 553.286 544.419, 551.722 545.393 C 548.669 547.293, 548.031 544.346, 548.015 528.250 C 548.007 519.862, 547.759 513, 547.465 513 C 547.170 513, 545.820 513.727, 544.465 514.615 C 542.123 516.149, 542 516.719, 542 526.008 C 542 534.341, 541.745 535.884, 540.276 536.447 C 537.455 537.530, 536 534.250, 536 526.809 C 536 523.064, 535.663 520.023, 535.250 520.051 C 534.837 520.079, 532.333 521.542, 529.685 523.301 C 525.321 526.201, 524.472 527.444, 520.605 536.590 C 518.259 542.140, 514.639 549.479, 512.561 552.899 C 510.484 556.319, 508.945 559.247, 509.142 559.406 C 509.339 559.565, 514 562.031, 519.500 564.886 C 531.700 571.220, 539.435 576.831, 543.786 582.504 C 547.709 587.621, 552.880 600.191, 556.025 612.258 L 558.307 621.017 561.495 616.258 C 571.527 601.283, 601.587 542.295, 623.542 494.500 C 625.311 490.650, 628.105 484.575, 629.752 481 C 648.908 439.424, 684 359.531, 684 357.498 C 684 356.808, 682.538 355.664, 680.750 354.957 C 664.925 348.697, 625.709 328.072, 605 315.117 C 579.514 299.174, 555.898 278.016, 547.618 263.708 L 543.736 257 457.553 257 L 371.370 257 369.588 260.750 M 771.500 276.662 C 755 284.549, 740.303 291.885, 738.840 292.965 C 737.376 294.044, 735.640 296.560, 734.982 298.554 C 733.873 301.914, 734.053 302.722, 737.420 309.536 C 740.398 315.560, 741.658 317.108, 744.388 318.096 C 747.586 319.252, 747.680 319.433, 746.713 322.583 C 745.288 327.225, 748.978 336.895, 753.784 341.115 C 756.724 343.697, 757.926 344.136, 760.910 343.718 C 762.885 343.442, 775.075 338.163, 788 331.986 C 800.925 325.810, 814.763 319.262, 818.750 317.435 C 822.737 315.608, 825.973 313.526, 825.941 312.807 C 825.842 310.605, 821.426 302.488, 820.433 302.683 C 819.920 302.783, 806.332 309.167, 790.238 316.869 L 760.975 330.872 758.918 326.839 C 757.786 324.621, 757.046 322.620, 757.274 322.393 C 757.501 322.166, 770.907 315.659, 787.065 307.935 C 803.223 300.210, 816.598 293.735, 816.788 293.545 C 816.978 293.355, 815.866 290.734, 814.317 287.720 L 811.500 282.240 789.500 292.707 C 777.400 298.464, 763.849 304.877, 759.387 306.959 L 751.274 310.744 749.221 306.518 L 747.167 302.291 776.334 288.513 C 792.375 280.934, 805.919 274.353, 806.430 273.887 C 807.274 273.118, 803.464 263.301, 802.048 262.596 C 801.747 262.445, 788 268.775, 771.500 276.662 M 100.410 276.179 C 95.340 286.274, 94.693 290.714, 97.684 294.878 C 98.951 296.641, 109.710 302.642, 130.534 313.200 C 147.565 321.836, 161.733 328.923, 162.017 328.950 C 162.302 328.978, 165.559 322.930, 169.257 315.512 L 175.979 302.023 171.023 299.512 C 168.297 298.130, 165.832 297, 165.546 297 C 165.259 297, 163.392 300.262, 161.395 304.250 C 159.399 308.238, 157.646 311.635, 157.499 311.800 C 157.352 311.966, 153.355 310.178, 148.616 307.828 L 140 303.554 140 293.792 L 140 284.029 134.029 281.014 C 130.744 279.356, 127.819 278, 127.529 278 C 127.238 278, 127 282.280, 127 287.510 L 127 297.020 118 292.500 C 113.050 290.014, 109 287.580, 109 287.092 C 109 286.603, 110.263 283.795, 111.806 280.852 C 116.476 271.942, 116.501 272.288, 111.002 269.501 C 108.287 268.125, 105.831 267, 105.543 267 C 105.256 267, 102.946 271.131, 100.410 276.179 M 429.923 278.923 L 427 281.846 427 299.923 L 427 318 457 318 L 487 318 487 298.985 L 487 279.971 483.750 277.989 C 480.751 276.160, 478.662 276.007, 456.673 276.004 L 432.846 276 429.923 278.923 M 432.440 282.296 C 432.166 283.009, 432.068 290.096, 432.221 298.046 L 432.500 312.500 457.129 312.767 L 481.758 313.034 482.365 310.767 C 483.158 307.810, 483.180 284.634, 482.393 282.582 C 481.862 281.199, 478.711 281, 457.362 281 C 438.282 281, 432.828 281.284, 432.440 282.296 M 423 323.729 C 420.870 324.540, 420.033 326.088, 420.015 329.250 L 420 332 457 332 L 494 332 494 328.475 C 494 325.612, 493.519 324.768, 491.435 323.975 C 488.731 322.947, 425.650 322.720, 423 323.729 M 78.315 339.488 C 76.563 340.237, 74.478 342.120, 73.682 343.675 C 72.099 346.765, 65.632 368.977, 66.168 369.483 C 67.123 370.385, 140.371 390.070, 141.348 389.688 C 141.981 389.439, 144.007 383.823, 145.849 377.206 C 149.509 364.055, 149.463 360.723, 145.570 357.066 C 142.644 354.317, 111.875 345.584, 110.866 347.216 C 110.437 347.912, 109.196 347.564, 107.306 346.218 C 104.826 344.452, 92.321 340.391, 84 338.650 C 82.625 338.362, 80.067 338.739, 78.315 339.488 M 406.500 347.155 C 401.576 349.848, 400.482 355.801, 404.073 360.365 C 408.358 365.813, 419 362.330, 419 355.480 C 419 348.272, 412.442 343.905, 406.500 347.155 M 82.089 356.097 C 81.414 358.351, 81.005 360.327, 81.181 360.489 C 81.356 360.650, 85.100 361.762, 89.500 362.959 C 93.900 364.156, 98.243 365.346, 99.150 365.604 C 100.638 366.025, 100.685 365.551, 99.627 360.786 L 98.454 355.500 92.477 353.830 C 83.774 351.398, 83.477 351.463, 82.089 356.097 M 800 367.384 C 779.925 372.464, 763.516 376.818, 763.535 377.060 C 763.554 377.302, 764.153 380.106, 764.866 383.292 C 765.905 387.933, 766.494 388.981, 767.831 388.570 C 768.749 388.288, 785.885 383.996, 805.912 379.033 C 825.939 374.070, 842.498 369.836, 842.710 369.624 C 842.922 369.411, 842.485 366.822, 841.740 363.869 C 840.717 359.817, 839.908 358.457, 838.442 358.324 C 837.374 358.228, 820.075 362.304, 800 367.384 M 113.480 364.750 C 113.869 367.363, 114.257 369.571, 114.344 369.658 C 114.639 369.956, 132.413 375, 133.168 375 C 134.091 375, 136.337 367.004, 135.617 366.283 C 135.061 365.727, 115.063 360.017, 113.636 360.006 C 113.162 360.003, 113.091 362.137, 113.480 364.750 M 507.357 363.016 C 501.830 365.183, 500.249 373.007, 504.527 377.026 C 510.099 382.260, 519 378.320, 519 370.619 C 519 365.222, 512.521 360.992, 507.357 363.016 M 303.452 379.646 C 301.040 382.249, 301 382.580, 301 400.146 L 301 418 331 418 L 361 418 361 399.573 L 361 381.145 358.365 379.073 C 355.860 377.102, 354.507 377, 330.817 377 L 305.905 377 303.452 379.646 M 555.924 379.578 C 553.573 382.078, 553.491 382.693, 553.187 400.078 L 552.874 418 583.437 418 L 614 418 614 401.649 C 614 383.878, 613.218 379.876, 609.403 378.138 C 607.756 377.387, 598.644 377, 582.627 377 L 558.349 377 555.924 379.578 M 307.200 382.200 C 306.375 383.025, 306 388.018, 306 398.181 C 306 412.679, 306.043 412.972, 308.250 413.513 C 309.488 413.817, 320.625 413.938, 333 413.782 L 355.500 413.500 355.777 398.076 C 355.987 386.406, 355.743 382.454, 354.777 381.841 C 352.626 380.476, 308.592 380.808, 307.200 382.200 M 559.200 382.200 C 558.380 383.020, 558 387.867, 558 397.500 C 558 407.133, 558.380 411.980, 559.200 412.800 C 560.065 413.665, 566.903 414, 583.665 414 C 605.643 414, 606.987 413.893, 607.965 412.066 C 608.534 411.002, 609 404.043, 609 396.601 C 609 384.247, 608.832 382.980, 607.066 382.035 C 604.195 380.499, 560.752 380.648, 559.200 382.200 M 450 398.935 C 442.030 401.368, 430.202 409.199, 419.744 418.966 C 405.551 432.220, 396.265 446.939, 393.961 459.832 C 391.958 471.037, 393.309 471.723, 398.673 462.226 C 405.357 450.393, 407.887 448.052, 409.910 451.831 C 410.669 453.249, 410.090 454.990, 407.349 459.541 C 393.205 483.020, 385.682 505.187, 388.141 516.134 C 389.499 522.176, 395.677 535, 404.120 549.299 C 410.122 559.464, 412.988 563.113, 421.300 571.170 C 428.259 577.916, 431.092 581.318, 430.669 582.420 C 429.516 585.424, 426.215 583.973, 418.996 577.290 L 411.749 570.580 412.495 574.040 C 414.139 581.664, 419.976 588.143, 428.289 591.570 C 433.503 593.719, 434.809 595.620, 432.593 597.835 C 431.287 599.142, 430.573 599.108, 426.495 597.551 C 415.755 593.450, 408.395 583.944, 405.997 571.076 C 405.441 568.093, 404.798 565.465, 404.569 565.236 C 404.340 565.007, 400.406 566.749, 395.826 569.107 C 389.787 572.217, 385.367 575.509, 379.736 581.091 C 371.088 589.662, 368.693 594.050, 362.619 612.450 L 359.005 623.399 361.752 627.390 C 366.221 633.881, 380.276 647.367, 387.649 652.239 C 410.212 667.149, 433.717 673.347, 463.982 672.366 C 499.713 671.208, 529.997 656.806, 551.257 630.862 C 555.005 626.288, 555.754 624.457, 554.135 623.833 C 553.659 623.650, 551.862 618.434, 550.142 612.243 C 546.532 599.253, 542.520 589.909, 538.529 585.196 C 534.850 580.851, 526.612 575.329, 515.448 569.724 L 506.397 565.179 504.645 571.979 C 500.404 588.442, 491.609 600.464, 479.452 606.413 C 472.075 610.023, 464.605 611.020, 463.647 608.523 C 462.664 605.960, 463.528 605.267, 469.236 604.043 C 479.342 601.876, 488.491 594.227, 493.810 583.500 C 499.534 571.955, 498.927 571.878, 487.657 582.720 C 475.806 594.122, 469.019 598.535, 461.810 599.526 C 457.017 600.185, 456.953 600.241, 457.452 603.348 C 459.270 614.685, 460.047 622.114, 459.508 622.988 C 458.544 624.547, 455.286 624.186, 454.618 622.447 C 454.290 621.593, 453.528 616.756, 452.925 611.697 C 451.291 598.014, 451.482 598.493, 446.945 596.711 C 443.590 595.393, 442.907 594.684, 443.174 592.801 C 443.517 590.382, 445.939 589.969, 450.747 591.511 C 452.694 592.135, 453.259 591.648, 454.975 587.866 C 457.188 582.989, 457.493 578.316, 455.960 572.794 C 455.111 569.739, 453.225 567.807, 445.222 561.794 C 432.941 552.566, 416.086 536.381, 410.267 528.225 C 402.405 517.208, 400.543 509.026, 403.115 496.799 C 407.697 475.012, 426.959 460.833, 454.088 459.277 C 482.236 457.662, 505.498 472.541, 510.936 495.639 C 513.055 504.636, 512.659 512.887, 509.815 519.039 C 504.302 530.964, 488.970 547.159, 470.368 560.709 C 462.198 566.659, 461.101 567.810, 461.508 570 C 463.247 579.362, 463.144 584.599, 461.134 589 C 458.495 594.775, 459.881 595.271, 467.815 591.391 C 475.009 587.872, 496.452 566.678, 503.330 556.287 C 512.150 542.962, 520.434 523.223, 523.084 509.219 C 526.008 493.765, 521.003 481.474, 504.794 464.302 C 497.882 456.979, 496.763 454.689, 499.572 453.611 C 501.930 452.706, 504.185 454.298, 510.351 461.220 L 515.945 467.500 515.973 463.460 C 516.060 450.668, 507.259 435.258, 490.025 418.026 C 473.936 401.938, 460.756 395.651, 450 398.935 M 811.156 416.055 C 790.067 417.595, 772.662 419.005, 772.479 419.188 C 772.296 419.371, 772.395 422.267, 772.700 425.623 L 773.253 431.726 777.376 431.337 C 781.708 430.929, 837.484 427, 838.950 427 C 839.417 427, 839.957 428.994, 840.151 431.431 L 840.503 435.861 835.002 436.440 C 831.976 436.758, 819.375 437.687, 807 438.504 C 794.625 439.321, 782.086 440.256, 779.136 440.581 L 773.772 441.172 774.198 447.065 C 774.433 450.306, 774.822 453.115, 775.062 453.307 C 776.024 454.075, 843.694 448.833, 846.368 447.785 C 853.750 444.889, 855.143 433.938, 848.873 428.096 L 846.623 426 849.311 426 C 851.580 426, 851.998 425.571, 851.989 423.250 C 851.973 419.173, 850.829 412.981, 850.119 413.127 C 849.779 413.197, 832.245 414.515, 811.156 416.055 M 57.609 420.673 C 56.804 427.520, 57.280 427.961, 65.500 427.992 C 68.800 428.004, 74.594 428.306, 78.375 428.663 L 85.251 429.313 87.209 433.739 C 88.286 436.174, 89.017 438.307, 88.834 438.478 C 88.650 438.650, 83.325 438.413, 77 437.953 C 70.675 437.492, 63.341 437.089, 60.702 437.058 L 55.905 437 56.202 443.250 L 56.500 449.500 66.500 450.170 C 72 450.538, 83.647 451.341, 92.381 451.955 C 101.116 452.569, 108.432 452.902, 108.638 452.695 C 108.844 452.489, 106.985 447.683, 104.507 442.015 C 102.028 436.348, 100 431.293, 100 430.783 C 100 430.263, 102.301 430.094, 105.250 430.398 C 108.138 430.696, 113.561 431.217, 117.303 431.555 L 124.107 432.171 123.803 436.335 C 123.503 440.465, 123.464 440.503, 119.250 440.807 C 116.912 440.977, 115 441.483, 115 441.933 C 115 442.383, 116.119 445.282, 117.487 448.376 C 119.949 453.941, 120.019 454, 124.237 453.995 C 132.924 453.985, 135.864 448.762, 135.956 433.173 C 135.997 426.423, 135.776 425.622, 133.150 422.997 C 129.606 419.452, 129.799 419.481, 93.898 417.025 C 54.077 414.301, 58.409 413.866, 57.609 420.673 M 295.035 425.934 C 294.466 426.998, 294 428.798, 294 429.934 C 294 431.985, 294.274 432, 331 432 L 368 432 368 429.200 C 368 427.660, 367.460 425.860, 366.800 425.200 C 365.913 424.313, 356.541 424, 330.835 424 C 297.488 424, 296.028 424.079, 295.035 425.934 M 547.571 425.571 C 546.707 426.436, 546 428.236, 546 429.571 L 546 432 583.500 432 L 621 432 621 429.571 C 621 424.022, 620.850 424, 583.500 424 C 553.600 424, 548.939 424.204, 547.571 425.571 M 0.441 459 C 0.441 474.675, 0.579 481.087, 0.748 473.250 C 0.917 465.412, 0.917 452.587, 0.748 444.750 C 0.579 436.912, 0.441 443.325, 0.441 459 M 355 457.294 C 347.219 461.230, 350.075 473.043, 358.789 472.968 C 365.546 472.910, 369.132 467.645, 366.578 461.533 C 364.390 456.295, 360.088 454.720, 355 457.294 M 551.364 457.170 C 548.887 458.369, 547 462.012, 547 465.593 C 547 469.348, 551.191 473, 555.500 473 C 564.173 473, 567.487 461.372, 559.928 457.463 C 556.677 455.782, 554.392 455.703, 551.364 457.170 M 114.601 486.105 C 111.356 486.578, 108.511 487.156, 108.278 487.389 C 108.045 487.621, 109.530 490.336, 111.578 493.420 L 115.302 499.029 120.006 498.405 C 124.348 497.829, 124.758 497.962, 125.341 500.140 C 126.576 504.753, 126.099 506.941, 123.750 507.444 C 117.898 508.697, 72.859 514.193, 72.378 513.712 C 72.078 513.411, 71.589 511.351, 71.291 509.134 L 70.750 505.102 75.898 504.419 C 78.729 504.044, 81.239 503.422, 81.477 503.037 C 81.715 502.653, 80.343 500.012, 78.428 497.169 C 74.583 491.460, 72.023 490.693, 65.718 493.362 C 58.744 496.314, 57.484 500.196, 59.478 512.587 C 60.728 520.355, 61.306 521.853, 63.972 524.250 C 67.904 527.784, 68.123 527.778, 102.753 523.157 C 133.021 519.117, 134.918 518.547, 137.831 512.605 C 138.950 510.323, 138.918 508.344, 137.633 500.195 C 136.274 491.582, 135.761 490.193, 133.036 487.750 C 129.670 484.733, 126.154 484.419, 114.601 486.105 M 777.775 486.559 C 776.276 487.372, 774.530 489.011, 773.893 490.200 C 772.805 492.232, 768.904 517.099, 769.555 517.845 C 769.975 518.325, 820.201 525.133, 820.573 524.760 C 820.990 524.344, 815.049 507.658, 814.192 506.838 C 813.811 506.473, 810.648 505.752, 807.162 505.235 L 800.823 504.295 801.295 506.765 L 801.768 509.236 794.634 508.553 C 782.767 507.417, 782.757 507.412, 783.547 502.625 C 783.922 500.356, 784.343 498.372, 784.483 498.215 C 784.622 498.058, 796.565 499.521, 811.021 501.465 C 825.477 503.409, 837.604 505, 837.970 505 C 838.335 505, 838.372 506.913, 838.051 509.250 L 837.467 513.500 830.733 513.188 C 826.821 513.007, 824 513.283, 824 513.849 C 824 514.384, 824.943 517.285, 826.095 520.296 C 828.006 525.291, 828.509 525.822, 831.845 526.374 C 839.516 527.642, 842.046 527.154, 845.444 523.750 C 848.218 520.971, 848.856 519.370, 849.844 512.709 C 851.329 502.701, 851.302 501.485, 849.521 498.041 C 848.555 496.172, 846.563 494.651, 843.771 493.649 C 840.188 492.364, 786.631 484.895, 782 485.035 C 781.175 485.060, 779.274 485.746, 777.775 486.559 M 434.938 496.615 C 434.229 497.941, 432.348 499.850, 430.759 500.856 L 427.870 502.685 430.483 504.397 C 431.920 505.338, 433.972 507.547, 435.044 509.304 C 436.116 511.062, 436.994 512.045, 436.996 511.490 C 437.001 510.287, 441.336 505.471, 443.508 504.256 C 444.763 503.553, 444.246 502.571, 440.634 498.801 L 436.229 494.204 434.938 496.615 M 360.030 551.279 C 352.140 555.272, 354.642 567.200, 363.369 567.200 C 372.646 567.200, 375.518 555.532, 367.316 551.163 C 364.556 549.693, 363.119 549.716, 360.030 551.279 M 547 551.294 C 540.862 554.399, 541.052 563.857, 547.306 566.487 C 550.421 567.796, 551.681 567.688, 555.702 565.766 C 560.705 563.374, 560.270 554.225, 555.024 551.513 C 551.488 549.684, 550.250 549.650, 547 551.294 M 378.567 749.144 C 376.957 753.977, 365 813.718, 365 816.929 C 365 823.141, 367.969 825.777, 377.511 828.039 C 381.905 829.080, 386.902 829.947, 388.615 829.966 C 392.566 830.009, 396.554 826.903, 397.899 822.734 C 399.907 816.514, 412.110 756.729, 411.628 755.474 C 411.193 754.338, 401.379 752.282, 400.523 753.147 C 400.331 753.341, 397.159 767.900, 393.474 785.500 C 389.789 803.100, 386.707 817.581, 386.624 817.679 C 386.542 817.778, 384.325 817.400, 381.698 816.840 C 377.977 816.047, 377.025 815.454, 377.388 814.161 C 377.644 813.247, 380.612 799.225, 383.982 783 C 387.353 766.775, 390.325 752.765, 390.586 751.867 C 390.945 750.632, 390.140 750.067, 387.280 749.549 C 385.201 749.172, 382.492 748.621, 381.259 748.326 C 379.870 747.992, 378.847 748.303, 378.567 749.144 M 517.557 751.962 C 509.257 754.097, 506.003 757.149, 505.994 762.806 C 505.987 767.126, 514.037 806, 514.939 806 C 515.275 806, 519.493 802.791, 524.312 798.870 C 529.130 794.948, 533.336 792.002, 533.656 792.323 C 533.977 792.644, 535.082 797.090, 536.111 802.203 C 537.140 807.316, 538.210 812.477, 538.490 813.671 C 538.912 815.474, 538.449 815.952, 535.749 816.495 C 533.962 816.855, 531.773 817.352, 530.885 817.599 C 529.610 817.954, 529.020 816.779, 528.083 812.017 C 526.746 805.221, 526.652 805.212, 519.620 811.259 L 515.740 814.595 517.379 820.232 C 519.263 826.712, 522.661 830.018, 527.385 829.966 C 529.098 829.947, 534.095 829.080, 538.489 828.039 C 548.115 825.757, 551 823.158, 551 816.765 C 551 813.517, 542.421 770.153, 541.607 769.286 C 541.497 769.169, 537.300 772.432, 532.282 776.536 C 527.264 780.641, 522.963 784, 522.724 784 C 522.485 784, 521.515 780.288, 520.568 775.750 C 519.622 771.212, 518.638 766.749, 518.382 765.831 C 517.906 764.123, 518.676 763.716, 524.652 762.517 C 527.702 761.905, 527.827 762.017, 528.491 765.947 L 529.177 770.010 531.839 768.056 C 540.207 761.912, 540.376 761.669, 539.066 757.700 C 536.520 749.985, 530.983 748.508, 517.557 751.962 M 427.943 760.750 C 427.912 762.813, 426.634 780.250, 425.103 799.500 C 423.573 818.750, 422.361 834.562, 422.410 834.638 C 422.460 834.713, 425.313 835.095, 428.750 835.486 L 435 836.196 435.057 832.348 C 435.088 830.232, 436.368 812.750, 437.901 793.500 C 439.435 774.250, 440.507 758.163, 440.285 757.750 C 440.064 757.337, 437.209 757, 433.941 757 L 428 757 427.943 760.750 M 463.500 757.939 C 457.184 758.333, 454.530 758.873, 454.600 759.750 C 454.655 760.438, 454.767 763.065, 454.850 765.589 L 455 770.178 461.046 769.839 C 466.435 769.537, 467.134 769.717, 467.487 771.500 C 467.705 772.600, 468.374 785.650, 468.974 800.500 C 469.573 815.350, 470.302 829.413, 470.593 831.750 L 471.123 836 477.061 836 C 482.880 836, 482.999 835.944, 482.973 833.250 C 482.958 831.737, 482.295 818.575, 481.500 804 C 480.705 789.425, 480.042 775.646, 480.027 773.379 L 480 769.258 486 768.580 L 492 767.901 492 762.450 L 492 757 482.250 757.189 C 476.887 757.293, 468.450 757.630, 463.500 757.939" stroke="none" fill="#940414" fill-rule="evenodd"/><path d="M 435.500 12.575 C 392.025 15.774, 366.105 20.132, 332.280 29.929 C 230.055 59.539, 140.221 126.784, 82.365 217 C 42.920 278.509, 20.140 344.555, 12.866 418.500 C 11.220 435.236, 11.217 482.730, 12.862 499.500 C 23.244 605.355, 67.318 699.242, 141.500 773.519 C 209.138 841.245, 294.831 885.037, 388 899.490 C 414.314 903.572, 427.067 904.481, 458 904.481 C 489.067 904.481, 501.865 903.562, 528.172 899.442 C 650.754 880.241, 759.906 809.840, 829.640 705 C 870.226 643.984, 894.563 575.350, 902.155 500.500 C 903.887 483.426, 903.898 432.390, 902.174 416 C 891.026 310.050, 847.583 217.845, 774 143.961 C 700.610 70.270, 605.349 24.824, 502.500 14.435 C 488.797 13.051, 445.404 11.847, 435.500 12.575 M 417 25.506 C 332.303 33.886, 253.524 65.784, 187.500 118.431 C 182 122.817, 177.275 126.652, 177 126.953 C 176.725 127.254, 172.236 131.325, 167.025 136 C 155.110 146.689, 145.594 156.207, 136 167.029 C 131.875 171.683, 127.958 176.066, 127.297 176.770 C 126.635 177.474, 124.385 180.176, 122.297 182.775 C 120.208 185.374, 118.261 187.725, 117.969 188 C 117.677 188.275, 115.290 191.425, 112.663 195 C 110.037 198.575, 107.314 202.204, 106.612 203.065 C 104.686 205.427, 89 229.159, 89 229.711 C 89 229.975, 88.137 231.404, 87.081 232.886 C 86.026 234.367, 83.702 238.262, 81.917 241.540 C 80.132 244.818, 78.388 247.725, 78.043 248 C 76.338 249.358, 55 295.246, 55 297.556 C 55 298.101, 51.257 306.706, 49.918 309.236 C 49.413 310.191, 49 311.852, 49 312.927 C 49 314.002, 48.550 315.160, 48 315.500 C 47.450 315.840, 47 317.141, 47 318.392 C 47 319.643, 46.687 320.980, 46.304 321.362 C 45.922 321.745, 45.498 322.813, 45.362 323.736 C 45.227 324.659, 44.691 326.334, 44.172 327.457 C 43.653 328.581, 42.674 331.525, 41.998 334 C 41.322 336.475, 40.399 339.625, 39.947 341 C 39.495 342.375, 38.196 347.550, 37.060 352.500 C 35.924 357.450, 34.564 363.075, 34.037 365 C 33.511 366.925, 32.340 372.775, 31.436 378 C 29.326 390.194, 29.076 391.868, 27.476 404.500 C 27.267 406.150, 26.548 411.775, 25.877 417 C 24.022 431.460, 24.322 484.107, 26.361 502 C 32.869 559.108, 47.153 607.180, 72.119 656 C 77.041 665.625, 81.840 674.508, 82.784 675.739 L 84.500 677.979 91 674.162 C 108.436 663.923, 134.377 648.641, 151.500 638.520 C 161.950 632.344, 175 624.674, 180.500 621.476 C 186 618.278, 194.775 613.108, 200 609.987 C 220.714 597.615, 229.135 592.802, 229.471 593.143 C 229.665 593.339, 233.129 598.450, 237.170 604.500 C 254.605 630.608, 274.833 652, 299.500 670.419 C 315.252 682.181, 323.396 687.150, 341.500 696.044 C 406.206 727.832, 481.732 731.576, 549.893 706.374 C 573.901 697.497, 604.062 680.210, 624.978 663.338 C 646.842 645.702, 668.229 620.947, 685.563 593.212 C 685.662 593.053, 691.539 596.381, 698.622 600.607 C 705.705 604.833, 713.525 609.408, 716 610.775 C 718.475 612.141, 721.175 613.778, 722 614.411 C 722.825 615.045, 725.525 616.641, 728 617.957 C 730.475 619.274, 732.725 620.609, 733 620.925 C 733.275 621.241, 734.574 622.105, 735.887 622.844 C 737.200 623.583, 739.900 625.109, 741.887 626.235 C 743.874 627.361, 747.525 629.402, 750 630.771 C 752.475 632.140, 755.175 633.778, 756 634.411 C 756.825 635.045, 759.525 636.641, 762 637.957 C 764.475 639.274, 766.725 640.609, 767 640.925 C 767.275 641.241, 769.525 642.591, 772 643.925 C 774.475 645.259, 776.725 646.610, 777 646.927 C 777.275 647.244, 778.850 648.177, 780.500 649 C 782.150 649.823, 783.725 650.732, 784 651.019 C 784.275 651.306, 785.625 652.091, 787 652.763 C 788.375 653.435, 790.175 654.421, 791 654.953 C 797.569 659.189, 809.332 666, 810.079 666 C 810.586 666, 811 666.450, 811 667 C 811 667.550, 811.426 668, 811.946 668 C 812.788 668, 819.497 671.677, 828.642 677.150 L 831.785 679.030 834.088 675.265 C 837.611 669.508, 838.698 667.474, 845.449 654 C 855.169 634.601, 858.565 627.192, 861.951 618 C 863.673 613.325, 865.574 608.375, 866.175 607 C 868.121 602.548, 869.440 598.524, 876.005 577 C 878.256 569.621, 881.996 554.179, 882.665 549.500 C 882.902 547.850, 883.306 545.880, 883.565 545.122 C 884.266 543.068, 886.732 530.149, 887.405 525 C 887.729 522.525, 888.194 519.150, 888.438 517.500 C 891.706 495.402, 893.015 464.267, 891.834 436.699 C 887.145 327.210, 840.082 223.250, 760 145.482 C 756.425 142.011, 751.492 137.444, 749.038 135.335 C 746.584 133.226, 743.233 130.242, 741.592 128.704 C 739.951 127.167, 737.234 124.825, 735.554 123.500 C 721.658 112.539, 714.646 107.211, 709.500 103.702 C 706.200 101.451, 702.935 99.052, 702.244 98.370 C 701.553 97.689, 700.091 96.846, 698.994 96.498 C 697.897 96.150, 697 95.446, 697 94.933 C 697 94.420, 696.325 94, 695.500 94 C 694.675 94, 694 93.550, 694 93 C 694 92.450, 693.325 92, 692.500 92 C 691.675 92, 691 91.550, 691 91 C 691 90.450, 690.541 90, 689.980 90 C 689.419 90, 687.057 88.789, 684.730 87.308 C 682.404 85.827, 678.475 83.531, 676 82.206 C 673.525 80.880, 671.275 79.495, 671 79.129 C 670.185 78.042, 637.612 61.976, 636.250 61.988 C 635.563 61.995, 635 61.475, 635 60.833 C 635 60.192, 634.720 59.946, 634.378 60.288 C 634.036 60.630, 631.674 59.864, 629.128 58.585 C 626.583 57.306, 623.375 55.926, 622 55.518 C 620.625 55.111, 617.925 54.107, 616 53.287 C 614.075 52.467, 611.375 51.339, 610 50.781 C 608.625 50.223, 606.719 49.369, 605.764 48.883 C 604.809 48.397, 603.340 48, 602.500 48 C 601.660 48, 600.191 47.594, 599.236 47.097 C 598.281 46.601, 595.475 45.620, 593 44.917 C 590.525 44.215, 587.938 43.216, 587.250 42.697 C 586.563 42.179, 586 41.988, 586 42.273 C 586 42.557, 583.188 41.885, 579.750 40.778 C 573.766 38.852, 569.005 37.638, 562.500 36.381 C 560.850 36.063, 558.712 35.381, 557.750 34.866 C 556.788 34.351, 556 34.123, 556 34.360 C 556 34.596, 554.313 34.372, 552.250 33.863 C 540.191 30.883, 522.427 27.936, 507.500 26.440 C 504.200 26.109, 498.350 25.476, 494.500 25.033 C 483.745 23.796, 431.033 24.117, 417 25.506 M 443.654 68.250 C 443.301 72.787, 443.009 89.205, 443.006 104.734 L 443 132.968 445.918 136.234 L 448.836 139.500 460 139.500 L 471.164 139.500 473.988 136.339 C 477.548 132.356, 477.882 128.700, 478.249 89.750 L 478.520 61 472.415 61 L 466.311 61 465.659 75.250 C 465.301 83.088, 465.006 98.162, 465.004 108.750 C 465 130.076, 465.439 128.838, 458.375 127.425 L 455.500 126.850 455.859 93.425 L 456.217 60 450.257 60 L 444.296 60 443.654 68.250 M 380.500 67.442 C 370.601 69.427, 367 72.474, 367 78.864 C 367 83.037, 376.668 135.447, 378.121 139.151 C 380.797 145.974, 385.062 147.312, 396.958 145.059 C 405.269 143.486, 408.574 141.724, 410.613 137.781 C 412.150 134.809, 412.140 133.938, 410.463 124.798 C 409.474 119.409, 408.444 115, 408.173 115 C 407.903 115, 405.291 116.805, 402.368 119.012 C 397.722 122.520, 397.123 123.367, 397.600 125.762 C 398.837 131.981, 398.699 132.320, 394.571 133.203 C 392.411 133.665, 390.336 133.696, 389.961 133.271 C 389.142 132.345, 379.630 81.037, 380.176 80.490 C 380.386 80.281, 382.410 79.693, 384.674 79.185 L 388.791 78.260 389.959 84.199 C 390.803 88.486, 391.458 89.893, 392.314 89.255 C 402.323 81.795, 402.239 81.899, 401.564 77.677 C 399.842 66.905, 394.973 64.539, 380.500 67.442 M 523.502 69.250 C 520.812 80.552, 507.067 143.386, 507.255 143.524 C 507.816 143.938, 516.997 146, 518.279 146 C 519.258 146, 520.526 141.999, 522.550 132.525 C 524.257 124.533, 525.967 118.843, 526.752 118.542 C 528.421 117.901, 528.357 117.698, 531.865 134.816 C 533.479 142.690, 534.995 149.328, 535.233 149.566 C 536.052 150.385, 547.048 152.286, 547.625 151.708 C 547.943 151.390, 546.551 143.234, 544.531 133.583 C 542.512 123.932, 541.111 115.629, 541.419 115.131 C 541.726 114.634, 543.542 113.933, 545.454 113.575 C 547.366 113.216, 549.159 112.552, 549.439 112.099 C 549.719 111.646, 551.371 104.840, 553.110 96.974 C 557.875 75.429, 556.817 73.451, 538.377 69.425 C 524.862 66.474, 524.165 66.466, 523.502 69.250 M 533.644 82.750 C 532.170 88.010, 528.861 104.194, 529.192 104.525 C 529.405 104.739, 531.587 104.328, 534.040 103.614 L 538.500 102.314 540.659 93.907 C 541.847 89.283, 542.859 84.959, 542.909 84.297 C 542.959 83.635, 541.313 82.625, 539.250 82.053 C 534.339 80.689, 534.218 80.704, 533.644 82.750 M 312 86.659 C 301.839 90.820, 297.841 94.311, 297.736 99.114 C 297.689 101.236, 302.376 114.398, 310.294 134.379 C 317.241 151.913, 323.136 166.469, 323.393 166.727 C 323.803 167.136, 349.930 157.381, 350.852 156.475 C 351.348 155.988, 347.995 146.115, 347.157 145.597 C 346.777 145.362, 343.392 146.482, 339.635 148.085 C 335.877 149.688, 332.284 150.998, 331.651 150.996 C 330.654 150.993, 324 135.881, 324 133.620 C 324 133.166, 326.700 129.665, 330 125.840 C 333.300 122.015, 336 118.502, 336 118.032 C 336 116.324, 331.702 106, 330.991 106 C 330.589 106, 327.643 109.142, 324.445 112.981 C 321.246 116.821, 318.529 119.859, 318.407 119.731 C 317.705 119.002, 310.819 100.849, 311.127 100.542 C 311.332 100.339, 314.875 98.817, 319 97.160 C 323.674 95.283, 326.387 93.649, 326.201 92.824 C 325.286 88.765, 322.575 83.012, 321.614 83.089 C 321.001 83.138, 316.675 84.744, 312 86.659 M 597.148 95.342 C 595.518 99.279, 588.930 115.318, 582.506 130.985 C 576.083 146.652, 570.608 159.825, 570.341 160.258 C 569.673 161.338, 581.126 166.304, 581.976 165.303 C 582.667 164.489, 610.660 96.277, 611.204 94.082 C 611.367 93.425, 608.937 91.830, 605.805 90.536 L 600.110 88.183 597.148 95.342 M 645.750 115.530 C 644.237 118.033, 643 120.405, 643 120.800 C 643 121.195, 645.250 122.873, 648 124.529 L 652.999 127.539 645.875 139.020 C 627.284 168.979, 618 184.111, 618 184.454 C 618 185.511, 628.374 191.023, 628.893 190.242 C 629.227 189.739, 637.135 177.104, 646.467 162.164 C 655.799 147.224, 663.787 135, 664.220 135 C 664.652 135, 667.138 136.327, 669.743 137.948 L 674.480 140.897 677.675 135.717 C 679.432 132.868, 680.787 130.468, 680.685 130.385 C 679.699 129.578, 650.595 111.782, 649.695 111.436 C 649.037 111.184, 647.262 113.026, 645.750 115.530 M 248.427 118.901 C 247.287 119.230, 243.086 121.488, 239.091 123.917 C 225.220 132.351, 225.352 134.818, 240.958 159.039 C 247.146 168.642, 252.556 176.872, 252.981 177.326 C 253.405 177.781, 256.386 173.618, 259.604 168.076 C 262.822 162.534, 265.745 158, 266.098 158 C 266.634 158, 277.840 174.865, 278.808 177.129 C 278.978 177.525, 277.433 178.993, 275.376 180.391 L 271.636 182.932 268.291 177.966 C 266.452 175.235, 264.767 173, 264.547 173 C 264.327 173, 262.695 175.537, 260.921 178.639 C 257.698 184.271, 257.696 184.281, 259.476 187.585 C 262.068 192.398, 265.229 195.001, 269.280 195.658 C 272.325 196.152, 273.960 195.544, 280.441 191.504 C 284.618 188.901, 288.927 185.637, 290.017 184.251 C 292.352 181.283, 292.586 176.035, 290.559 172.114 C 288.998 169.095, 267.235 135.024, 266.011 133.682 C 265.600 133.232, 262.644 137.395, 259.441 142.932 C 256.238 148.469, 253.310 153, 252.935 153 C 252.103 153, 241.555 137.073, 242.108 136.652 C 242.324 136.487, 244.025 135.298, 245.889 134.009 L 249.279 131.665 251.982 134.979 L 254.686 138.292 257.843 132.774 C 259.579 129.739, 260.990 126.861, 260.978 126.378 C 260.888 122.836, 252.370 117.761, 248.427 118.901 M 696.568 176.095 C 684.625 188.852, 679.093 195.440, 679.904 195.941 C 680.572 196.353, 685.591 197.940, 691.059 199.467 C 696.527 200.994, 701 202.543, 701 202.910 C 701 203.276, 697.437 207.384, 693.082 212.038 L 685.164 220.500 681.928 217.327 L 678.693 214.154 681.458 210.867 L 684.224 207.580 679.362 205.868 C 672.517 203.456, 670.459 203.601, 668.051 206.662 C 663.034 213.040, 664.105 217.397, 672.651 225.383 C 686.660 238.474, 685.154 239.127, 715.558 206.777 L 740.118 180.644 735.680 176.206 L 731.242 171.768 723.731 179.634 C 719.599 183.960, 715.349 188.576, 714.286 189.892 C 712.428 192.190, 712.149 192.235, 707.176 191.042 C 704.329 190.359, 702.021 189.508, 702.048 189.150 C 702.074 188.793, 707.004 183.325, 713.003 177 L 723.911 165.500 719.747 161.250 C 717.457 158.912, 715.327 157, 715.014 157 C 714.701 157, 706.400 165.593, 696.568 176.095 M 146.294 207.507 C 144.453 208.796, 131.803 224.160, 129.670 227.695 C 129.200 228.475, 139.769 237.308, 160.090 253.118 L 191.231 277.346 193.143 274.923 C 194.195 273.590, 195.950 271.297, 197.042 269.826 L 199.028 267.152 188.433 258.948 C 178.822 251.506, 176.011 248.656, 177.153 247.513 C 177.373 247.293, 184.517 248.877, 193.027 251.032 C 201.537 253.188, 208.558 254.963, 208.630 254.976 C 208.701 254.989, 210.597 252.567, 212.842 249.593 C 215.471 246.111, 216.493 244.020, 215.712 243.721 C 215.046 243.465, 206.728 241.353, 197.229 239.026 L 179.958 234.796 180.577 230.134 L 181.195 225.472 174.848 220.525 C 157.203 206.772, 155.998 206, 152.170 206 C 150.121 206, 147.477 206.678, 146.294 207.507 M 425.534 208.596 C 360.053 217.534, 302.753 249.565, 262.022 300 C 248.148 317.179, 228.576 349, 231.883 349 C 233.340 349, 274.385 328.381, 287 321.312 C 329.386 297.561, 359.233 271.976, 365.024 254.428 L 366.155 251 457.828 251.027 L 549.500 251.054 552.300 257.326 C 562.110 279.305, 599.011 307.044, 657 336.030 C 678.539 346.797, 684 349.253, 684 348.176 C 684 347.779, 681.325 342.643, 678.054 336.763 C 638.553 265.730, 568.437 218.642, 487 208.455 C 472.652 206.660, 439.156 206.737, 425.534 208.596 M 148.716 222.660 L 146.112 226.319 155.806 233.764 L 165.500 241.209 166.132 238.354 C 167.706 231.239, 167.394 230.579, 159.638 224.639 C 155.589 221.537, 152.061 219, 151.798 219 C 151.535 219, 150.148 220.647, 148.716 222.660 M 369.588 260.750 C 364.848 270.721, 352.034 284.829, 336.500 297.180 C 316.075 313.419, 276.443 336.344, 241.266 352.266 L 231.032 356.898 234.391 364.699 C 244.654 388.532, 258.477 419.979, 260.077 423.132 C 261.854 426.634, 262.078 426.746, 266.341 426.265 C 272.433 425.578, 277.233 427.409, 281.380 431.999 C 296.105 448.298, 276.117 471.542, 257.770 459.455 C 249.007 453.682, 247.426 440.355, 254.514 432 C 255.574 430.750, 254.134 426.743, 245.890 408 C 240.447 395.625, 233.648 379.993, 230.780 373.261 C 227.608 365.816, 225.285 361.527, 224.846 362.310 C 221.599 368.113, 213.307 395.508, 210.563 409.500 C 204.204 441.922, 204.380 478.326, 211.052 510.751 C 228.144 593.823, 289.145 664.571, 369.500 694.516 C 398.324 705.258, 426.239 710.210, 458 710.216 C 476.622 710.219, 489.041 709.089, 506 705.848 C 604.993 686.930, 684.381 607.952, 704.373 508.500 C 712.155 469.789, 710.566 425.955, 700.059 389.500 C 696.462 377.020, 690.754 361.844, 689.973 362.683 C 689.554 363.132, 682.575 378.796, 674.464 397.491 C 627.862 504.897, 585.189 592.809, 564.503 624.025 C 545.316 652.979, 516.889 671.608, 483.074 677.389 C 471.021 679.449, 445.719 679.514, 433.403 677.516 C 400.445 672.171, 370.542 652.934, 351.957 625.121 L 346.531 617 340.603 617 C 336.058 617, 333.664 616.407, 330.336 614.457 C 319.532 608.125, 318.866 591.602, 329.110 584.065 C 332.587 581.507, 340.636 580.190, 345.435 581.394 C 348.981 582.284, 355.042 587.855, 356.649 591.702 C 359.256 597.941, 358.028 606.192, 353.826 610.678 C 351.954 612.677, 351.913 613.037, 353.322 615.049 C 354.831 617.203, 354.878 617.164, 356.017 612.871 C 356.654 610.467, 358.928 604, 361.070 598.500 C 367.358 582.354, 377.865 571.403, 395 563.133 C 399.125 561.142, 402.641 559.444, 402.814 559.359 C 402.987 559.274, 400.560 554.771, 397.421 549.352 C 394.282 543.934, 390.012 535.817, 387.932 531.315 C 385.079 525.138, 383.396 522.739, 381.076 521.539 L 378 519.949 378 527.867 C 378 534.440, 377.707 535.898, 376.276 536.447 C 373.241 537.612, 372 534.268, 372 524.924 C 372 516.778, 371.844 516.128, 369.525 514.609 L 367.051 512.987 366.775 528.636 C 366.534 542.372, 366.283 544.420, 364.722 545.392 C 361.624 547.322, 361.031 544.296, 361.015 526.469 L 361 509.438 351.750 503.982 C 339.951 497.022, 334.727 492.204, 331.324 485.143 C 328.688 479.673, 328.592 478.864, 328.189 458.750 L 327.773 438 308.454 438 C 286.279 438, 287.213 438.451, 288.473 428.366 C 289.025 423.951, 289.691 422.549, 292.075 420.786 L 295 418.624 295 399.960 C 295 382.221, 295.112 381.127, 297.270 377.898 C 301.618 371.389, 303.535 371.003, 331.516 371.002 C 367.541 370.999, 367 370.555, 367 400.167 C 367 418.021, 367.091 418.894, 369.011 419.503 C 372.245 420.530, 374.134 425.381, 373.799 431.794 L 373.500 437.500 353.678 437.771 L 333.856 438.043 334.178 458.771 L 334.500 479.500 337.500 484.500 L 340.500 489.500 341 468 C 341.487 447.040, 341.553 446.492, 343.620 446.198 C 346.711 445.756, 346.971 447.767, 346.986 472.237 L 347 493.975 350.980 496.487 C 353.169 497.869, 355.194 499, 355.480 499 C 355.766 499, 356 494.305, 356 488.567 C 356 478.887, 356.150 478.087, 358.075 477.476 C 359.217 477.114, 360.454 477.119, 360.825 477.488 C 361.196 477.856, 361.725 483.829, 362 490.761 L 362.500 503.364 372 509.113 L 381.500 514.862 382.101 507.181 C 382.480 502.337, 384.013 495.676, 386.252 489.148 C 389.192 480.575, 389.635 478.255, 388.832 475.648 C 388.298 473.917, 387.852 469.125, 387.841 465 C 387.799 450.131, 394.687 436.516, 410.607 420.003 C 423.945 406.166, 435.617 397.954, 447.625 393.959 L 454 391.837 454 374.918 L 454 358 439.750 357.985 C 431.913 357.976, 424.893 357.585, 424.152 357.115 C 423.410 356.645, 422.966 355.414, 423.164 354.380 C 423.496 352.653, 424.763 352.478, 438.763 352.224 L 454 351.948 454 344.974 L 454 338 435.035 338 C 417.309 338, 416.003 337.874, 415.035 336.066 C 412.543 331.410, 414.868 321.211, 418.915 319.045 C 420.911 317.977, 421 317.152, 421.002 299.715 C 421.003 279.104, 421.761 276.160, 428 272.534 C 431.205 270.671, 433.520 270.473, 455.500 270.175 C 481.885 269.817, 484.954 270.256, 489.542 275.041 L 492.500 278.126 492.809 297.522 L 493.118 316.918 496.559 320.359 C 499.773 323.573, 500 324.228, 500 330.283 C 500 336.162, 499.790 336.823, 497.750 337.370 C 496.512 337.701, 487.512 337.979, 477.750 337.986 L 460 338 460 353 L 460 368 478.433 368 C 496.348 368, 496.884 368.060, 497.540 370.125 C 497.963 371.458, 497.708 372.570, 496.857 373.110 C 496.111 373.582, 487.512 373.976, 477.750 373.985 L 460 374 460 377 L 460 380 471.393 380 C 481.255 380, 482.875 380.232, 483.447 381.724 C 484.667 384.903, 481.296 386, 470.309 386 L 460 386 460 388.986 C 460 391.698, 460.420 392.077, 464.587 393.126 C 478.653 396.668, 506.870 423.683, 516.398 442.731 C 519.975 449.883, 521.968 458.996, 521.985 468.290 C 521.997 474.236, 522.503 477.065, 524.123 480.242 C 529.787 491.343, 531.023 499.100, 528.931 510.414 C 528.343 513.594, 528.066 516.399, 528.314 516.647 C 528.562 516.895, 534.218 513.880, 540.883 509.947 L 553 502.795 553 490.366 C 553 479.755, 553.241 477.845, 554.645 477.306 C 557.730 476.122, 559 479.762, 559 489.793 L 559 499.203 563.250 496.694 L 567.500 494.186 568 470.343 C 568.499 446.550, 568.505 446.499, 570.750 446.180 C 571.987 446.005, 573.089 446.005, 573.199 446.180 C 573.308 446.356, 573.645 455.950, 573.949 467.500 L 574.500 488.500 577 484.500 C 579.432 480.608, 579.508 479.926, 579.805 459.250 L 580.110 438 560.600 438 L 541.091 438 540.434 434.500 C 539.437 429.184, 540.811 423.979, 543.997 421.003 L 546.840 418.347 547.170 399.244 C 547.471 381.792, 547.679 379.897, 549.571 377.320 C 553.933 371.380, 555.976 371.003, 583.800 371.002 C 611.808 371, 613.382 371.298, 617.040 377.299 C 618.797 380.179, 618.993 382.421, 618.996 399.683 C 619 418.069, 619.084 418.892, 621.027 419.508 C 624.653 420.659, 626.127 424.254, 625.800 431.151 L 625.500 437.500 606 438 L 586.500 438.500 586 460 L 585.500 481.500 582.551 486.824 C 579.139 492.983, 574.996 496.536, 563.073 503.527 L 554.500 508.554 554 526.420 C 553.560 542.134, 553.286 544.419, 551.722 545.393 C 548.669 547.293, 548.031 544.346, 548.015 528.250 C 548.007 519.862, 547.759 513, 547.465 513 C 547.170 513, 545.820 513.727, 544.465 514.615 C 542.123 516.149, 542 516.719, 542 526.008 C 542 534.341, 541.745 535.884, 540.276 536.447 C 537.455 537.530, 536 534.250, 536 526.809 C 536 523.064, 535.663 520.023, 535.250 520.051 C 534.837 520.079, 532.333 521.542, 529.685 523.301 C 525.321 526.201, 524.472 527.444, 520.605 536.590 C 518.259 542.140, 514.639 549.479, 512.561 552.899 C 510.484 556.319, 508.945 559.247, 509.142 559.406 C 509.339 559.565, 514 562.031, 519.500 564.886 C 531.700 571.220, 539.435 576.831, 543.786 582.504 C 547.709 587.621, 552.880 600.191, 556.025 612.258 L 558.307 621.017 561.495 616.258 C 571.527 601.283, 601.587 542.295, 623.542 494.500 C 625.311 490.650, 628.105 484.575, 629.752 481 C 648.908 439.424, 684 359.531, 684 357.498 C 684 356.808, 682.538 355.664, 680.750 354.957 C 664.925 348.697, 625.709 328.072, 605 315.117 C 579.514 299.174, 555.898 278.016, 547.618 263.708 L 543.736 257 457.553 257 L 371.370 257 369.588 260.750 M 771.500 276.662 C 755 284.549, 740.303 291.885, 738.840 292.965 C 737.376 294.044, 735.640 296.560, 734.982 298.554 C 733.873 301.914, 734.053 302.722, 737.420 309.536 C 740.398 315.560, 741.658 317.108, 744.388 318.096 C 747.586 319.252, 747.680 319.433, 746.713 322.583 C 745.288 327.225, 748.978 336.895, 753.784 341.115 C 756.724 343.697, 757.926 344.136, 760.910 343.718 C 762.885 343.442, 775.075 338.163, 788 331.986 C 800.925 325.810, 814.763 319.262, 818.750 317.435 C 822.737 315.608, 825.973 313.526, 825.941 312.807 C 825.842 310.605, 821.426 302.488, 820.433 302.683 C 819.920 302.783, 806.332 309.167, 790.238 316.869 L 760.975 330.872 758.918 326.839 C 757.786 324.621, 757.046 322.620, 757.274 322.393 C 757.501 322.166, 770.907 315.659, 787.065 307.935 C 803.223 300.210, 816.598 293.735, 816.788 293.545 C 816.978 293.355, 815.866 290.734, 814.317 287.720 L 811.500 282.240 789.500 292.707 C 777.400 298.464, 763.849 304.877, 759.387 306.959 L 751.274 310.744 749.221 306.518 L 747.167 302.291 776.334 288.513 C 792.375 280.934, 805.919 274.353, 806.430 273.887 C 807.274 273.118, 803.464 263.301, 802.048 262.596 C 801.747 262.445, 788 268.775, 771.500 276.662 M 100.410 276.179 C 95.340 286.274, 94.693 290.714, 97.684 294.878 C 98.951 296.641, 109.710 302.642, 130.534 313.200 C 147.565 321.836, 161.733 328.923, 162.017 328.950 C 162.302 328.978, 165.559 322.930, 169.257 315.512 L 175.979 302.023 171.023 299.512 C 168.297 298.130, 165.832 297, 165.546 297 C 165.259 297, 163.392 300.262, 161.395 304.250 C 159.399 308.238, 157.646 311.635, 157.499 311.800 C 157.352 311.966, 153.355 310.178, 148.616 307.828 L 140 303.554 140 293.792 L 140 284.029 134.029 281.014 C 130.744 279.356, 127.819 278, 127.529 278 C 127.238 278, 127 282.280, 127 287.510 L 127 297.020 118 292.500 C 113.050 290.014, 109 287.580, 109 287.092 C 109 286.603, 110.263 283.795, 111.806 280.852 C 116.476 271.942, 116.501 272.288, 111.002 269.501 C 108.287 268.125, 105.831 267, 105.543 267 C 105.256 267, 102.946 271.131, 100.410 276.179 M 429.923 278.923 L 427 281.846 427 299.923 L 427 318 457 318 L 487 318 487 298.985 L 487 279.971 483.750 277.989 C 480.751 276.160, 478.662 276.007, 456.673 276.004 L 432.846 276 429.923 278.923 M 432.440 282.296 C 432.166 283.009, 432.068 290.096, 432.221 298.046 L 432.500 312.500 457.129 312.767 L 481.758 313.034 482.365 310.767 C 483.158 307.810, 483.180 284.634, 482.393 282.582 C 481.862 281.199, 478.711 281, 457.362 281 C 438.282 281, 432.828 281.284, 432.440 282.296 M 423 323.729 C 420.870 324.540, 420.033 326.088, 420.015 329.250 L 420 332 457 332 L 494 332 494 328.475 C 494 325.612, 493.519 324.768, 491.435 323.975 C 488.731 322.947, 425.650 322.720, 423 323.729 M 78.315 339.488 C 76.563 340.237, 74.478 342.120, 73.682 343.675 C 72.099 346.765, 65.632 368.977, 66.168 369.483 C 67.123 370.385, 140.371 390.070, 141.348 389.688 C 141.981 389.439, 144.007 383.823, 145.849 377.206 C 149.509 364.055, 149.463 360.723, 145.570 357.066 C 142.644 354.317, 111.875 345.584, 110.866 347.216 C 110.437 347.912, 109.196 347.564, 107.306 346.218 C 104.826 344.452, 92.321 340.391, 84 338.650 C 82.625 338.362, 80.067 338.739, 78.315 339.488 M 406.500 347.155 C 401.576 349.848, 400.482 355.801, 404.073 360.365 C 408.358 365.813, 419 362.330, 419 355.480 C 419 348.272, 412.442 343.905, 406.500 347.155 M 82.089 356.097 C 81.414 358.351, 81.005 360.327, 81.181 360.489 C 81.356 360.650, 85.100 361.762, 89.500 362.959 C 93.900 364.156, 98.243 365.346, 99.150 365.604 C 100.638 366.025, 100.685 365.551, 99.627 360.786 L 98.454 355.500 92.477 353.830 C 83.774 351.398, 83.477 351.463, 82.089 356.097 M 800 367.384 C 779.925 372.464, 763.516 376.818, 763.535 377.060 C 763.554 377.302, 764.153 380.106, 764.866 383.292 C 765.905 387.933, 766.494 388.981, 767.831 388.570 C 768.749 388.288, 785.885 383.996, 805.912 379.033 C 825.939 374.070, 842.498 369.836, 842.710 369.624 C 842.922 369.411, 842.485 366.822, 841.740 363.869 C 840.717 359.817, 839.908 358.457, 838.442 358.324 C 837.374 358.228, 820.075 362.304, 800 367.384 M 113.480 364.750 C 113.869 367.363, 114.257 369.571, 114.344 369.658 C 114.639 369.956, 132.413 375, 133.168 375 C 134.091 375, 136.337 367.004, 135.617 366.283 C 135.061 365.727, 115.063 360.017, 113.636 360.006 C 113.162 360.003, 113.091 362.137, 113.480 364.750 M 507.357 363.016 C 501.830 365.183, 500.249 373.007, 504.527 377.026 C 510.099 382.260, 519 378.320, 519 370.619 C 519 365.222, 512.521 360.992, 507.357 363.016 M 303.452 379.646 C 301.040 382.249, 301 382.580, 301 400.146 L 301 418 331 418 L 361 418 361 399.573 L 361 381.145 358.365 379.073 C 355.860 377.102, 354.507 377, 330.817 377 L 305.905 377 303.452 379.646 M 555.924 379.578 C 553.573 382.078, 553.491 382.693, 553.187 400.078 L 552.874 418 583.437 418 L 614 418 614 401.649 C 614 383.878, 613.218 379.876, 609.403 378.138 C 607.756 377.387, 598.644 377, 582.627 377 L 558.349 377 555.924 379.578 M 307.200 382.200 C 306.375 383.025, 306 388.018, 306 398.181 C 306 412.679, 306.043 412.972, 308.250 413.513 C 309.488 413.817, 320.625 413.938, 333 413.782 L 355.500 413.500 355.777 398.076 C 355.987 386.406, 355.743 382.454, 354.777 381.841 C 352.626 380.476, 308.592 380.808, 307.200 382.200 M 559.200 382.200 C 558.380 383.020, 558 387.867, 558 397.500 C 558 407.133, 558.380 411.980, 559.200 412.800 C 560.065 413.665, 566.903 414, 583.665 414 C 605.643 414, 606.987 413.893, 607.965 412.066 C 608.534 411.002, 609 404.043, 609 396.601 C 609 384.247, 608.832 382.980, 607.066 382.035 C 604.195 380.499, 560.752 380.648, 559.200 382.200 M 450 398.935 C 442.030 401.368, 430.202 409.199, 419.744 418.966 C 405.551 432.220, 396.265 446.939, 393.961 459.832 C 391.958 471.037, 393.309 471.723, 398.673 462.226 C 405.357 450.393, 407.887 448.052, 409.910 451.831 C 410.669 453.249, 410.090 454.990, 407.349 459.541 C 393.205 483.020, 385.682 505.187, 388.141 516.134 C 389.499 522.176, 395.677 535, 404.120 549.299 C 410.122 559.464, 412.988 563.113, 421.300 571.170 C 428.259 577.916, 431.092 581.318, 430.669 582.420 C 429.516 585.424, 426.215 583.973, 418.996 577.290 L 411.749 570.580 412.495 574.040 C 414.139 581.664, 419.976 588.143, 428.289 591.570 C 433.503 593.719, 434.809 595.620, 432.593 597.835 C 431.287 599.142, 430.573 599.108, 426.495 597.551 C 415.755 593.450, 408.395 583.944, 405.997 571.076 C 405.441 568.093, 404.798 565.465, 404.569 565.236 C 404.340 565.007, 400.406 566.749, 395.826 569.107 C 389.787 572.217, 385.367 575.509, 379.736 581.091 C 371.088 589.662, 368.693 594.050, 362.619 612.450 L 359.005 623.399 361.752 627.390 C 366.221 633.881, 380.276 647.367, 387.649 652.239 C 410.212 667.149, 433.717 673.347, 463.982 672.366 C 499.713 671.208, 529.997 656.806, 551.257 630.862 C 555.005 626.288, 555.754 624.457, 554.135 623.833 C 553.659 623.650, 551.862 618.434, 550.142 612.243 C 546.532 599.253, 542.520 589.909, 538.529 585.196 C 534.850 580.851, 526.612 575.329, 515.448 569.724 L 506.397 565.179 504.645 571.979 C 500.404 588.442, 491.609 600.464, 479.452 606.413 C 472.075 610.023, 464.605 611.020, 463.647 608.523 C 462.664 605.960, 463.528 605.267, 469.236 604.043 C 479.342 601.876, 488.491 594.227, 493.810 583.500 C 499.534 571.955, 498.927 571.878, 487.657 582.720 C 475.806 594.122, 469.019 598.535, 461.810 599.526 C 457.017 600.185, 456.953 600.241, 457.452 603.348 C 459.270 614.685, 460.047 622.114, 459.508 622.988 C 458.544 624.547, 455.286 624.186, 454.618 622.447 C 454.290 621.593, 453.528 616.756, 452.925 611.697 C 451.291 598.014, 451.482 598.493, 446.945 596.711 C 443.590 595.393, 442.907 594.684, 443.174 592.801 C 443.517 590.382, 445.939 589.969, 450.747 591.511 C 452.694 592.135, 453.259 591.648, 454.975 587.866 C 457.188 582.989, 457.493 578.316, 455.960 572.794 C 455.111 569.739, 453.225 567.807, 445.222 561.794 C 432.941 552.566, 416.086 536.381, 410.267 528.225 C 402.405 517.208, 400.543 509.026, 403.115 496.799 C 407.697 475.012, 426.959 460.833, 454.088 459.277 C 482.236 457.662, 505.498 472.541, 510.936 495.639 C 513.055 504.636, 512.659 512.887, 509.815 519.039 C 504.302 530.964, 488.970 547.159, 470.368 560.709 C 462.198 566.659, 461.101 567.810, 461.508 570 C 463.247 579.362, 463.144 584.599, 461.134 589 C 458.495 594.775, 459.881 595.271, 467.815 591.391 C 475.009 587.872, 496.452 566.678, 503.330 556.287 C 512.150 542.962, 520.434 523.223, 523.084 509.219 C 526.008 493.765, 521.003 481.474, 504.794 464.302 C 497.882 456.979, 496.763 454.689, 499.572 453.611 C 501.930 452.706, 504.185 454.298, 510.351 461.220 L 515.945 467.500 515.973 463.460 C 516.060 450.668, 507.259 435.258, 490.025 418.026 C 473.936 401.938, 460.756 395.651, 450 398.935 M 811.156 416.055 C 790.067 417.595, 772.662 419.005, 772.479 419.188 C 772.296 419.371, 772.395 422.267, 772.700 425.623 L 773.253 431.726 777.376 431.337 C 781.708 430.929, 837.484 427, 838.950 427 C 839.417 427, 839.957 428.994, 840.151 431.431 L 840.503 435.861 835.002 436.440 C 831.976 436.758, 819.375 437.687, 807 438.504 C 794.625 439.321, 782.086 440.256, 779.136 440.581 L 773.772 441.172 774.198 447.065 C 774.433 450.306, 774.822 453.115, 775.062 453.307 C 776.024 454.075, 843.694 448.833, 846.368 447.785 C 853.750 444.889, 855.143 433.938, 848.873 428.096 L 846.623 426 849.311 426 C 851.580 426, 851.998 425.571, 851.989 423.250 C 851.973 419.173, 850.829 412.981, 850.119 413.127 C 849.779 413.197, 832.245 414.515, 811.156 416.055 M 57.609 420.673 C 56.804 427.520, 57.280 427.961, 65.500 427.992 C 68.800 428.004, 74.594 428.306, 78.375 428.663 L 85.251 429.313 87.209 433.739 C 88.286 436.174, 89.017 438.307, 88.834 438.478 C 88.650 438.650, 83.325 438.413, 77 437.953 C 70.675 437.492, 63.341 437.089, 60.702 437.058 L 55.905 437 56.202 443.250 L 56.500 449.500 66.500 450.170 C 72 450.538, 83.647 451.341, 92.381 451.955 C 101.116 452.569, 108.432 452.902, 108.638 452.695 C 108.844 452.489, 106.985 447.683, 104.507 442.015 C 102.028 436.348, 100 431.293, 100 430.783 C 100 430.263, 102.301 430.094, 105.250 430.398 C 108.138 430.696, 113.561 431.217, 117.303 431.555 L 124.107 432.171 123.803 436.335 C 123.503 440.465, 123.464 440.503, 119.250 440.807 C 116.912 440.977, 115 441.483, 115 441.933 C 115 442.383, 116.119 445.282, 117.487 448.376 C 119.949 453.941, 120.019 454, 124.237 453.995 C 132.924 453.985, 135.864 448.762, 135.956 433.173 C 135.997 426.423, 135.776 425.622, 133.150 422.997 C 129.606 419.452, 129.799 419.481, 93.898 417.025 C 54.077 414.301, 58.409 413.866, 57.609 420.673 M 295.035 425.934 C 294.466 426.998, 294 428.798, 294 429.934 C 294 431.985, 294.274 432, 331 432 L 368 432 368 429.200 C 368 427.660, 367.460 425.860, 366.800 425.200 C 365.913 424.313, 356.541 424, 330.835 424 C 297.488 424, 296.028 424.079, 295.035 425.934 M 547.571 425.571 C 546.707 426.436, 546 428.236, 546 429.571 L 546 432 583.500 432 L 621 432 621 429.571 C 621 424.022, 620.850 424, 583.500 424 C 553.600 424, 548.939 424.204, 547.571 425.571 M 355 457.294 C 347.219 461.230, 350.075 473.043, 358.789 472.968 C 365.546 472.910, 369.132 467.645, 366.578 461.533 C 364.390 456.295, 360.088 454.720, 355 457.294 M 551.364 457.170 C 548.887 458.369, 547 462.012, 547 465.593 C 547 469.348, 551.191 473, 555.500 473 C 564.173 473, 567.487 461.372, 559.928 457.463 C 556.677 455.782, 554.392 455.703, 551.364 457.170 M 114.601 486.105 C 111.356 486.578, 108.511 487.156, 108.278 487.389 C 108.045 487.621, 109.530 490.336, 111.578 493.420 L 115.302 499.029 120.006 498.405 C 124.348 497.829, 124.758 497.962, 125.341 500.140 C 126.576 504.753, 126.099 506.941, 123.750 507.444 C 117.898 508.697, 72.859 514.193, 72.378 513.712 C 72.078 513.411, 71.589 511.351, 71.291 509.134 L 70.750 505.102 75.898 504.419 C 78.729 504.044, 81.239 503.422, 81.477 503.037 C 81.715 502.653, 80.343 500.012, 78.428 497.169 C 74.583 491.460, 72.023 490.693, 65.718 493.362 C 58.744 496.314, 57.484 500.196, 59.478 512.587 C 60.728 520.355, 61.306 521.853, 63.972 524.250 C 67.904 527.784, 68.123 527.778, 102.753 523.157 C 133.021 519.117, 134.918 518.547, 137.831 512.605 C 138.950 510.323, 138.918 508.344, 137.633 500.195 C 136.274 491.582, 135.761 490.193, 133.036 487.750 C 129.670 484.733, 126.154 484.419, 114.601 486.105 M 777.775 486.559 C 776.276 487.372, 774.530 489.011, 773.893 490.200 C 772.805 492.232, 768.904 517.099, 769.555 517.845 C 769.975 518.325, 820.201 525.133, 820.573 524.760 C 820.990 524.344, 815.049 507.658, 814.192 506.838 C 813.811 506.473, 810.648 505.752, 807.162 505.235 L 800.823 504.295 801.295 506.765 L 801.768 509.236 794.634 508.553 C 782.767 507.417, 782.757 507.412, 783.547 502.625 C 783.922 500.356, 784.343 498.372, 784.483 498.215 C 784.622 498.058, 796.565 499.521, 811.021 501.465 C 825.477 503.409, 837.604 505, 837.970 505 C 838.335 505, 838.372 506.913, 838.051 509.250 L 837.467 513.500 830.733 513.188 C 826.821 513.007, 824 513.283, 824 513.849 C 824 514.384, 824.943 517.285, 826.095 520.296 C 828.006 525.291, 828.509 525.822, 831.845 526.374 C 839.516 527.642, 842.046 527.154, 845.444 523.750 C 848.218 520.971, 848.856 519.370, 849.844 512.709 C 851.329 502.701, 851.302 501.485, 849.521 498.041 C 848.555 496.172, 846.563 494.651, 843.771 493.649 C 840.188 492.364, 786.631 484.895, 782 485.035 C 781.175 485.060, 779.274 485.746, 777.775 486.559 M 434.938 496.615 C 434.229 497.941, 432.348 499.850, 430.759 500.856 L 427.870 502.685 430.483 504.397 C 431.920 505.338, 433.972 507.547, 435.044 509.304 C 436.116 511.062, 436.994 512.045, 436.996 511.490 C 437.001 510.287, 441.336 505.471, 443.508 504.256 C 444.763 503.553, 444.246 502.571, 440.634 498.801 L 436.229 494.204 434.938 496.615 M 360.030 551.279 C 352.140 555.272, 354.642 567.200, 363.369 567.200 C 372.646 567.200, 375.518 555.532, 367.316 551.163 C 364.556 549.693, 363.119 549.716, 360.030 551.279 M 547 551.294 C 540.862 554.399, 541.052 563.857, 547.306 566.487 C 550.421 567.796, 551.681 567.688, 555.702 565.766 C 560.705 563.374, 560.270 554.225, 555.024 551.513 C 551.488 549.684, 550.250 549.650, 547 551.294 M 378.567 749.144 C 376.957 753.977, 365 813.718, 365 816.929 C 365 823.141, 367.969 825.777, 377.511 828.039 C 381.905 829.080, 386.902 829.947, 388.615 829.966 C 392.566 830.009, 396.554 826.903, 397.899 822.734 C 399.907 816.514, 412.110 756.729, 411.628 755.474 C 411.193 754.338, 401.379 752.282, 400.523 753.147 C 400.331 753.341, 397.159 767.900, 393.474 785.500 C 389.789 803.100, 386.707 817.581, 386.624 817.679 C 386.542 817.778, 384.325 817.400, 381.698 816.840 C 377.977 816.047, 377.025 815.454, 377.388 814.161 C 377.644 813.247, 380.612 799.225, 383.982 783 C 387.353 766.775, 390.325 752.765, 390.586 751.867 C 390.945 750.632, 390.140 750.067, 387.280 749.549 C 385.201 749.172, 382.492 748.621, 381.259 748.326 C 379.870 747.992, 378.847 748.303, 378.567 749.144 M 517.557 751.962 C 509.257 754.097, 506.003 757.149, 505.994 762.806 C 505.987 767.126, 514.037 806, 514.939 806 C 515.275 806, 519.493 802.791, 524.312 798.870 C 529.130 794.948, 533.336 792.002, 533.656 792.323 C 533.977 792.644, 535.082 797.090, 536.111 802.203 C 537.140 807.316, 538.210 812.477, 538.490 813.671 C 538.912 815.474, 538.449 815.952, 535.749 816.495 C 533.962 816.855, 531.773 817.352, 530.885 817.599 C 529.610 817.954, 529.020 816.779, 528.083 812.017 C 526.746 805.221, 526.652 805.212, 519.620 811.259 L 515.740 814.595 517.379 820.232 C 519.263 826.712, 522.661 830.018, 527.385 829.966 C 529.098 829.947, 534.095 829.080, 538.489 828.039 C 548.115 825.757, 551 823.158, 551 816.765 C 551 813.517, 542.421 770.153, 541.607 769.286 C 541.497 769.169, 537.300 772.432, 532.282 776.536 C 527.264 780.641, 522.963 784, 522.724 784 C 522.485 784, 521.515 780.288, 520.568 775.750 C 519.622 771.212, 518.638 766.749, 518.382 765.831 C 517.906 764.123, 518.676 763.716, 524.652 762.517 C 527.702 761.905, 527.827 762.017, 528.491 765.947 L 529.177 770.010 531.839 768.056 C 540.207 761.912, 540.376 761.669, 539.066 757.700 C 536.520 749.985, 530.983 748.508, 517.557 751.962 M 427.943 760.750 C 427.912 762.813, 426.634 780.250, 425.103 799.500 C 423.573 818.750, 422.361 834.562, 422.410 834.638 C 422.460 834.713, 425.313 835.095, 428.750 835.486 L 435 836.196 435.057 832.348 C 435.088 830.232, 436.368 812.750, 437.901 793.500 C 439.435 774.250, 440.507 758.163, 440.285 757.750 C 440.064 757.337, 437.209 757, 433.941 757 L 428 757 427.943 760.750 M 463.500 757.939 C 457.184 758.333, 454.530 758.873, 454.600 759.750 C 454.655 760.438, 454.767 763.065, 454.850 765.589 L 455 770.178 461.046 769.839 C 466.435 769.537, 467.134 769.717, 467.487 771.500 C 467.705 772.600, 468.374 785.650, 468.974 800.500 C 469.573 815.350, 470.302 829.413, 470.593 831.750 L 471.123 836 477.061 836 C 482.880 836, 482.999 835.944, 482.973 833.250 C 482.958 831.737, 482.295 818.575, 481.500 804 C 480.705 789.425, 480.042 775.646, 480.027 773.379 L 480 769.258 486 768.580 L 492 767.901 492 762.450 L 492 757 482.250 757.189 C 476.887 757.293, 468.450 757.630, 463.500 757.939 M 142.500 793 C 145.209 795.750, 147.650 798, 147.925 798 C 148.200 798, 146.209 795.750, 143.500 793 C 140.791 790.250, 138.350 788, 138.075 788 C 137.800 788, 139.791 790.250, 142.500 793 M 224.500 854.740 C 225.050 855.312, 228.200 857.253, 231.500 859.052 C 234.800 860.852, 237.050 861.869, 236.500 861.312 C 235.950 860.756, 232.800 858.815, 229.500 857 C 226.200 855.185, 223.950 854.168, 224.500 854.740 M 242 864.497 C 242 865.160, 266.121 877.212, 266.563 876.771 C 266.756 876.578, 261.308 873.628, 254.457 870.215 C 247.606 866.802, 242 864.229, 242 864.497 M 283 884.171 C 289.958 887.309, 306.220 893.113, 306.703 892.631 C 306.940 892.393, 305.416 891.644, 303.317 890.965 C 301.218 890.287, 295.103 887.992, 289.730 885.866 C 279.347 881.757, 275.502 880.789, 283 884.171 M 322 898.038 C 325.677 899.647, 339.097 903.236, 339.591 902.742 C 339.824 902.509, 336.299 901.287, 331.758 900.027 C 321.286 897.123, 318.708 896.597, 322 898.038 M 341 903.301 C 341 904.011, 360.009 908.324, 360.587 907.746 C 360.834 907.499, 357.525 906.538, 353.233 905.611 C 348.941 904.684, 344.433 903.665, 343.215 903.346 C 341.997 903.027, 341 903.007, 341 903.301 M 375 911.056 C 379.675 912.075, 384.850 912.885, 386.500 912.856 C 388.150 912.828, 385.225 911.981, 380 910.975 C 367.661 908.599, 363.999 908.659, 375 911.056 M 397.500 914.543 C 401.900 915.260, 410.450 916.082, 416.500 916.369 L 427.500 916.890 418 915.997 C 412.775 915.506, 405.219 914.631, 401.209 914.052 C 390.909 912.566, 387.852 912.971, 397.500 914.543" stroke="none" fill="#f9f8f8" fill-rule="evenodd"/></svg>